/* XPM */
static char *result[] = {
/* columns rows colors chars-per-pixel */
"60 100 31 1 ",
"  c #141214",
". c #540204",
"X c #542204",
"o c #5C2604",
"O c #4C4A04",
"+ c #044244",
"@ c #045254",
"# c #246E6C",
"$ c #840204",
"% c #CC0204",
"& c #FC1214",
"* c #845E04",
"= c #AC7A04",
"- c #844224",
"; c #8C4624",
": c #C46244",
"> c #CC6A4C",
", c #D4A634",
"< c #E48E54",
"1 c #E49664",
"2 c #448EA4",
"3 c #4492A4",
"4 c #04CACC",
"5 c #64C6F4",
"6 c #F4B684",
"7 c #FCD684",
"8 c #F4D6A4",
"9 c #F4F6B4",
"0 c #84D6E4",
"q c #FCFEFC",
"w c None",
/* pixels */
"wwwwwwwwwwwwwwwwwwwwwwwwwwwwwwwwwwwwwwwwwwwwwwwwwwwwwwwwwwww",
"wwwwwwwwwwwwwwwwwwwwwwwwwwwwwwwwwwwwwwwwwwwwwwwwwwwwwwwwwwww",
"wwwwwwwwwwwwwwwwwwwwwwwwwwwwwwwwwwwwwwwwwwwwwwwwwwwwwwwwwwww",
"wwwwwwwwwwwwwwwwwwwwwwwwwwwwwwwwwwwwwwwwwwwwwwwwwwwwwwwwwwww",
"wwwwwwwwwwwwwwwwwwwww#25552#wwwwwwwwwwwwwwwwwwwwwwwwwwwwwwww",
"wwwwwwwwwwwwwwwwwwww@####552@wwwwwwwwwwwwwwwwwwwwwwwwwwwwwww",
"wwwwwwwwwwwwwwwwwww@25552#2@5#wwwwwwwwwwwwwwwwwwwwwwwwwwwwww",
"wwwwwwwwwwwwwwwwwww@@###22@55577,wwwwwwwwwwwwwwwwwwwwwwwwwww",
"wwwwwwwwwwwwwwwwwww,777,,@22,77777wwwwwwwwwwwwwwwwwwwwwwwwww",
"wwwwwwwwwwwwwwwwww,,,,,,,,#===,,,77wwwwwwwwwwwwwwwwwwwwwwwww",
"wwwwwwwwwwwwwwwwww,::,,661:=1,www,7,wwwwwwwwwwwwwwwwwwwwwwww",
"wwwwwwwwwwwwwwwwww:6<,8888881,wwww,7wwwwwwwwwwwwwwwwwwwwwwww",
"wwwwwwwwwwwwwwwwww:68,6<:8881wwwww,7wwwwwwwwwwwwwwwwwwwwwwww",
"wwwwwwwwwwwwwwwww=;68614O:881wwwww,7wwwwwwwwwwwwwwwwwwwwwwww",
"wwwwwwwwwwwwwwwww=,:886q081:>wwwww,,wwwwwwwwwwwwwwwwwwwwwwww",
"wwwwwwwwwwwwwwww,=,-88818881wwwww,,wwwwwwwwwwwwwwwwwwwwwwwww",
"wwwwwwwwwwwwwwww,7==:8888888wwwww,,wwwwwwwwwwwwwwwwwwwwwwwww",
"wwwwwwwwwwwwwwww,77=-688888:wwww,,wwwwwwwwwwwwwwwwwwwwwwwwww",
"wwwwwwwwwwwwwwww===@2:88::2w2222#wwwwwwwwwwwwwwwwwwwwwwwwwww",
"wwwwwwwwwwwwwww,7##@3#-68-#2555552wwwwwwwwwwwwwwwwwwwwwwwwww",
"wwwwwwwwwwwww##225#@3##-;2#2552###wwwwwwwwwwwwwwwwwwwwwwwwww",
"wwwwwwwwwww#2555553#@#2::#255#52552wwwwwwwwwwwwwwwwwwwwwwwww",
"wwwwwwwwwww@######2#*,%%6:25#55255#wwwwwwwwwwwwwwwwwwwwwwwww",
"wwwwwwwwwww252#2@3#2*%&&%6-#555#55@wwwwwwwwwwwwwwwwwwwwwwwww",
"wwwwwwwwww#52#2@#2#%%&$&&$:;#55#23@wwwwwwwwwwwwwwwwwwwwwwwww",
"wwwwwwwww@oXoo##2%%%&&&$&%$-@22#22#wwwwwwwwwwwwwwwwwwwwwwwww",
"wwwwwwwwwXoooo#2%&%&&&&%$%%$@@22#3#wwwwww1$&wwwwwwwwwwwwwwww",
"wwwwwwww;o;;;;#%&&&$&&%%$.$.++22#2#wwww:68$&&wwwwwwwwwwwwwww",
"wwwwwwww;>;;;%%&%&&&$%%$.$.2+++3#52#www-:<$$&wwwwwwwwwwwwwww",
"wwwwwwww1>;;%&&%&$&%%.$.$.2+#++2##5#w18-888%%&wwwwwwwwwwwwww",
"wwwwwwww<%%%&%%&&%.%$$...2+#2#+22#2$$<6X:6:$%&wwwwwwwwwwwwww",
"wwwwwwww%&$%$%&&%$$.$..2@#+#2#+22#$%%---688%%&wwwwwwwwwwwwww",
"wwwwwww@%&&$%&%%$%$..@@@++#22@w#2$%$$...-1:$%%wwwwwwwwwwwwww",
"wwwwwww@%&&&$%$$%..##@22+#222+w@2$%.%.$$X88%%%wwwwwwwwwwwwww",
"wwwwwww@2$&%%$$%..@#2#222#22#@+@#$%.%%.$$::.$$wwwwwwwwwwwwww",
"wwwwwww@#2$%%%$.ww#22#2222##696w@$%$$%%.....wwwwwwwwwwwwwwww",
"wwwwwwww@##$%$.=w:#2222222#6999w@$%%$..$%.wwwwwwwwwwwwwwwwww",
"wwwwwwwww@@@..,=:622#22222699981w@$%%%%%$wwwwwwwwwwwwwwwwwww",
"wwwwwwwwwwww=,,=1622#25522898881$%$......wwwwwwwwwwwwwwwwwww",
"wwwwwwwwwwwww==w<622#25522888886$%%%%%%%$wwwwwwwwwwwwwwwwwww",
"wwwwwwwwwwww,77:6<25255521888886w$%%%$$.wwwwwwwwwwwwwwwwwwww",
"wwwwwwwwwwww,7:66:252555268888861w...wwwwwwwwwwwwwwwwwwwwwww",
"wwwwwwwwwwww=,:66:252555268888881wwwwwwwwwwwwwwwwwwwwwwwwwww",
"wwwwwwwwwwwww:<66:255552168888886wwwwwwwwwwwwwwwwwwwwwwwwwww",
"wwwwwwwwwwww:66666255552668888886#wwwwwwwwwwwwwwwwwwwwwwwwww",
"wwwwwwwwwww@666666#25522668888855#wwwwwwwwwwwwwwwwwwwwwwwwww",
"wwwwwwwwww@2666666#222228688885555#wwwwwwwwwwwwwwwwwwwwwwwww",
"wwwwwwwww@22266666##252286888555552wwwwwwwwwwwwwwwwwwwwwwwww",
"wwwwwwww@2222666661#252286828555852@wwwwwwwwwwwwwwwwwwwwwwww",
"wwwwwww@22222666661@222#66828558885#wwwwwwwwwwwwwwwwwwwwwwww",
"wwwwww:6222226666611#2##61822558888#wwwwwwwwwwwwwwwwwwwwwwww",
"wwwwww<6622222666<11@##@1:8228588881wwwwwwwwwwwwwwwwwwwwwwww",
"wwwww:666622226661661@@+::8828888888:wwwwwwwwwwwwwwwwwwwwwww",
"wwwww:66666222666661:wwww:8828888888:wwwwwwwwwwwwwwwwwwwwwww",
"wwwww:6666622266666>wwwww:8828888888:wwwwwwwwwwwwwwwwwwwwwww",
"wwww:6666666626666-wwwwwww1828888888:wwwwwwwwwwwwwwwwwwwwwww",
"wwww<666666662666-wwwwwwww:6888888886wwwwwwwwwwwwwwwwwwwwwww",
"www:666666666666-wwwwwwwwww:888888886wwwwwwwwwwwwwwwwwwwwwww",
"www:66666666666-wwwwwwwwwww:188855588:wwwwwwwwwwwwwwwwwwwwww",
"ww:66626666661-wwwwwwwwwwwww>18558888:wwwwwwwwwwwwwwwwwwwwww",
"ww:6666266666-wwwwwwwwwwwwwww:12888881:wwwwwwwwwwwwwwwwwwwww",
"w:<666622661:wwwwwwwwwwwwwwwww>288888:<:wwwwwwwwwwwwwwwwwwww",
"w:666666221-wwwwwwwwwwwwwwwwwww@68888:61:wwwwwwwwwwwwwwwwwww",
":16666662#-wwwwwwwwwwwwwwwwwwwww1:8886:66wwwwwwwwwwwwwwwwwww",
":6666661#@wwwwwwwwwwwwwwwwwwwwww:16866666<wwwwwwwwwwwwwwwwww",
"-66661<1@wwwwwwwwwwwwwwwwwwwwwwww1:6666<88:wwwwwwwwwwwwwwwww",
"-1111111-wwwwwwwwwwwwwwwwwwwwwwww16:6666688:wwwwwwwwwwwwwwww",
"-:1<111:-wwwwwwwwwwwwwwwwwwwwwwwww16:666688:-wwwwwwwwwwwwwww",
"w-1111<::-wwwwwwwwwwwwwwwwwwwwwwwww16<666866XXwwwwwwwwwwwwww",
"w-11111:<-wwwwwwwwwwwwwwwwwwwwwwwww>666666<X--wwwwwwwwwwwwww",
"w-:<111111-wwwwwwwwwwwwwwwwwwwwwwwww<6666<----Xwwwwwwwwwwwww",
"ww-11<111<:wwwwwwwwwwwwwwwwwwwwwwwww>166<::---Xwwwwwwwwwwwww",
"ww-:111<111wwwwwwwwwwwwwwwwwwwwwwwwww-XX:6<----Xwwwwwwwwwwww",
"www:1<111<:XwwwwwwwwwwwwwwwwwwwwwwwwwwX--:6:----wwwwwwwwwwww",
"www-1111<:XXwwwwwwwwwwwwwwwwwwwwwwwwwwX---:<:---Xwwwwwwwwwww",
"wwwX:1<1:X-XwwwwwwwwwwwwwwwwwwwwwwwwwwwX---:<----Xwwwwwwwwww",
"wwwX:11<:X-XwwwwwwwwwwwwwwwwwwwwwwwwwwwX---:<----Xwwwwwwwwww",
"www-X<:X---XwwwwwwwwwwwwwwwwwwwwwwwwwwwwX---::---Xwwwwwwwwww",
"wwwX-  -----Xwwwwwwwwwwwwwwwwwwwwwwwwwwww---------Xwwwwwwwww",
"wwww--<-----XwwwwwwwwwwwwwwwwwwwwwwwwwwwwX----::--Xwwwwwwwww",
"wwww--<-----XwwwwwwwwwwwwwwwwwwwwwwwwwwwwwX----:---wwwwwwwww",
"wwwwX-::----XwwwwwwwwwwwwwwwwwwwwwwwwwwwwwwX----:--Xwwwwwwww",
"wwwww--:----XwwwwwwwwwwwwwwwwwwwwwwwwwwwwwwwX---:--Xwwwwwwww",
"wwwww--:-----XwwwwwwwwwwwwwwwwwwwwwwwwwwwwwwwX---:--Xwwwwwww",
"wwwwwX-::----XwwwwwwwwwwwwwwwwwwwwwwwwwwwwwwwwX--:--Xwwwwwww",
"wwwwwX:-----XwwwwwwwwwwwwwwwwwwwwwwwwwwwwwwwwwX--:--Xwwwwwww",
"wwwwww:---:XXwwwwwwwwwwwwwwwwwwwwwwwwwwwwwwwwwX-:----Xwwwwww",
"wwwwww-:::-X:wwwwwwwwwwwwwwwwwwwwwwwwwwwwwwwwwwX::::-Xwwwwww",
"wwwwww-----X:wwwwwwwwwwwwwwwwwwwwwwwwwwwwwwwwwwX---:-Xwwwwww",
"wwwwww;-----::wwwwwwwwwwwwwwwwwwwwwwwwwwwwwwwwwX----X-Xwwwww",
"wwwwwX::---X:-wwwwwwwwwwwwwwwwwwwwwwwwwwwwwwwwwwXX--;::Xwwww",
"wwwww;:::-----wwwwwwwwwwwwwwwwwwwwwwwwwwwwwwwwwwwwX-::::wwww",
"wwww;::::----Xwwwwwwwwwwwwwwwwwwwwwwwwwwwwwwwwwwwww-::::-www",
"wwww-::::-XXXXwwwwwwwwwwwwwwwwwwwwwwwwwwwwwwwwwwwww-:::::-ww",
"wwwX:::::X --wwwwwwwwwwwwwwwwwwwwwwwwwwwwwwwwwwwwwwX:::::-ww",
"ww-:::::- wwwwwwwwwwwwwwwwwwwwwwwwwwwwwwwwwwwwwwwwww-:::::ww",
"w-:161::XwwwwwwwwwwwwwwwwwwwwwwwwwwwwwwwwwwwwwwwwwwwwX-:::-w",
"w>:::::XwwwwwwwwwwwwwwwwwwwwwwwwwwwwwwwwwwwwwwwwwwwwwwX-16-w",
"wXX--X wwwwwwwwwwwwwwwwwwwwwwwwwwwwwwwwwwwwwwwwwwwwwwwwX-:Xw",
"wwwwwwwwwwwwwwwwwwwwwwwwwwwwwwwwwwwwwwwwwwwwwwwwwwwwwwwwXXXw"
};
