/* XPM */
static char *result[] = {
/* columns rows colors chars-per-pixel */
"60 100 29 1 ",
"  c #141214",
". c #540204",
"X c #542204",
"o c #5C2604",
"O c #142244",
"+ c #044244",
"@ c #045254",
"# c #246E6C",
"$ c #840204",
"% c #CC0204",
"& c #FC1214",
"* c #AC7A04",
"= c #844224",
"- c #8C4624",
"; c #C46244",
": c #CC6A4C",
"> c #D4A634",
", c #E48E54",
"< c #E49664",
"1 c #448EA4",
"2 c #4492A4",
"3 c #64C6F4",
"4 c #F4B684",
"5 c #FCD684",
"6 c #F4D6A4",
"7 c #F4F6B4",
"8 c #84D6E4",
"9 c #FCFEFC",
"0 c None",
/* pixels */
"000000000000000000000000000000000000000000000000000000000000",
"000000000000000000000000000000000000000000000000000000000000",
"000000000000000000000000000000000000000000000000000000000000",
"000000000000000000000000000000000000000000000000000000000000",
"000000000000000000000000000000000000000000000000000000000000",
"000000000000000000000000000000000000000000000000000000000000",
"000000000000000000000000000000000000000000000000000000000000",
"00000000000000000000#13331#000000000000000000000000000000000",
"0000000000000000000@####331@00000000000000000000000000000000",
"000000000000000000@13331#1@3#0000000000000000000000000000000",
"000000000000000000@@###11@33355>0000000000000000000000000000",
"000000000000000000>555>>@11>55555000000000000000000000000000",
"00000000000000000>>>>>>>>#***>>>5500000000000000000000000000",
"00000000000000000>;;>>44<;*<>000>5>0000000000000000000000000",
"00000000000000000;4,>666666<>0000>50000000000000000000000000",
"00000000000000000;46>4,;666<00000>50000000000000000000000000",
"0000000000000000*-464<==;66<00000>50000000000000000000000000",
"0000000000000000*>;664986<;:00000>>0000000000000000000000000",
"000000000000000>*>=666<666<00000>>00000000000000000000000000",
"00000000000000>55**;666666600000>>00000000000000000000000000",
"00000000000000>5>*0=466666;0000>>000000000000000000000000000",
"00000000000000***0@1%%;;;100111#0000000000000000000000000000",
"0000000000000>5>##@%&&%4;#1133331000000000000000000000000000",
"000000000000##113#@%%&&%4=1331###000000000000000000000000000",
"0000000000#1333331%&&$&&$;=3#3133100000000000000000000000000",
"0000000000@######%&&&&$%%$=#33133#00000000000000000000000000",
"0000000000131#1@%%&&&%%$.$=333#33@00000000000000000000000000",
"000000000#31#1@%&&$&%%%..;-333#11@00000000000000000000000000",
"000000000@oXoo%%&&&$%$.$.=#111#2#0000<<$&0000000000000000000",
"000000000Xooo%&%$&%%.%$.331@12#1#000;66$&&000000000000000000",
"00000000-o--%&%%&.%$$..3331+11#2#000=<<$$&000000000000000000",
"00000000,:-%&&%&&%.$..#3331+12#1#0<6=666%%000000000000000000",
"00000000<%%&&%&&%$$..3#3311+11#1$$,4X,4;$%&00000000000000000",
"00000000%%$%$&&%$$..#11#11+#11#$%$===666%%&00000000000000000",
"0000000@%&&$%&%$%.O@@#11@##+#1#$$$.X=;<;$%%00000000000000000",
"0000000@%&&&$%$%.++#@@@+++1#+1$%.%.$X466%%%00000000000000000",
"0000000@2$&%%$%.@@##@#1@111#@#$%.%$.$=;;.$$00000000000000000",
"0000000@#1$%%%$.0##1111@111++@$%$$%%.....0000000000000000000",
"00000000@##$%$.00#111111#1#@@@#%%$..$$.000000000000000000000",
"000000000@@@..*0;#111111#1474@@$%%%%$.0000000000000000000000",
"00000000000*>>*04111#111##777<%%.....00000000000000000000000",
"000000000000**0;4111#111#47764%%%%%%$00000000000000000000000",
"00000000000>55*;4111#111#47764$%%$$.000000000000000000000000",
"00000000000>5>*,4111#331176666;...00000000000000000000000000",
"00000000000*>>;4<1111331<66666<00000000000000000000000000000",
"000000000000**;4,1131331466666400000000000000000000000000000",
"00000000000*>;,4;113333<466666400000000000000000000000000000",
"00000000000*;,44;11333144666664;0000000000000000000000000000",
"00000000000;4444<1133314466666610000000000000000000000000000",
"0000000000+44444,#113116466663331000000000000000000000000000",
"000000000@1444444#111116466633333#00000000000000000000000000",
"00000000@11144444##13116466633333100000000000000000000000000",
"00000000@11144444;#131164616333633@0000000000000000000000000",
"0000000@111144444<@111#44616336663#0000000000000000000000000",
"0000000@111144444<@111#44616336663#0000000000000000000000000",
"000000;4411114444<;#1##4,6113366661;000000000000000000000000",
"00000;4444111444,<<@##@<;6116366666;000000000000000000000000",
"00000;4444111444<44;@@+;;6116666666<000000000000000000000000",
"0000;,444444144444<=0000:4616666666<000000000000000000000000",
"0000;4444444144444=000000<6166666664000000000000000000000000",
"000;,444444414444=0000000;6166666664000000000000000000000000",
"000;444444444444=0000000004666666666000000000000000000000000",
"000<4444444444<=0000000000:466633366;00000000000000000000000",
"00;444144444<;=000000000000;<6336666<00000000000000000000000",
"00<444414444;=00000000000000;<1666664;0000000000000000000000",
"00,44441144;=000000000000000;<1666664;0000000000000000000000",
"0;44444411;=00000000000000000:#6666664;000000000000000000000",
"0;4444441#=0000000000000000000@466666;4;00000000000000000000",
";<444444#@0000000000000000000004;66664;<;0000000000000000000",
";444444<@0000000000000000000000;4;6644;46<000000000000000000",
"=4444<<<=00000000000000000000000<4;<444,66,;0000000000000000",
"=<<<,<<;=000000000000000000000000<4;,444466<;000000000000000",
"0;<<<<,;;=000000000000000000000000<4;444466;XX00000000000000",
"0=<<<<<;,<=000000000000000000000000;4<4446,X==00000000000000",
"00;<,<<<<<;0000000000000000000000000<4444,;-==X0000000000000",
"00=<<<<,<<;0000000000000000000000000;,4<,;4,===X000000000000",
"00=<,<<<<,;0000000000000000000000000XXXX;;4,===X000000000000",
"00=<<<<<,;=00000000000000000000000000X====;,;==X000000000000",
"00=;<<,,;X=X00000000000000000000000000X====;,;==X00000000000",
"000=<,;XX==X000000000000000000000000000X====;,===X0000000000",
"000==X=====X0000000000000000000000000000X====;===X0000000000",
"000X==;====o00000000000000000000000000000=========X000000000",
"000X==,====.00000000000000000000000000000X====;====000000000",
"0000==;=====X00000000000000000000000000000X====;===X00000000",
"0000X=;;====X000000000000000000000000000000X====;==X00000000",
"0000X==;====X0000000000000000000000000000000X===;===X0000000",
"00000==;=====X0000000000000000000000000000000X==;===X0000000",
"00000X=;;====X00000000000000000000000000000000===;===X000000",
"00000X;======X00000000000000000000000000000000===;;;=X000000",
"00000X;=====X000000000000000000000000000000000X====;=X000000",
"000000;===;XX0000000000000000000000000000000000XX===XXX00000",
"000000X;;;=;0000000000000000000000000000000000000XX====X0000",
"000000=====;;000000000000000000000000000000000000X===;;-0000",
"00000=;;==X;=0000000000000000000000000000000000000X=;;;;=000",
"0000=;;;;====0000000000000000000000000000000000000X=;;;;;=00",
"00X;;;;;;===X00000000000000000000000000000000000000==;;;;;00",
"0=;<44;;=XXXX00000000000000000000000000000000000000XX=;;;;=0",
"0;;;;;;== ==00000000000000000000000000000000000000000XX=<4=0",
"0XX==XXXX0000000000000000000000000000000000000000000000X=;;X",
"00000000000000000000000000000000000000000000000000000000XXXX"
};
