/* XPM */
static char *result[] = {
/* columns rows colors chars-per-pixel */
"60 100 27 1 ",
"  c #141214",
". c #540204",
"X c #542204",
"o c #5C2604",
"O c #044244",
"+ c #045254",
"@ c #246E6C",
"# c #840204",
"$ c #CC0204",
"% c #FC1214",
"& c #845E04",
"* c #AC7A04",
"= c #844224",
"- c #8C4624",
"; c #C46244",
": c #CC6A4C",
"> c #D4A634",
", c #E48E54",
"< c #E49664",
"1 c #448EA4",
"2 c #4492A4",
"3 c #64C6F4",
"4 c #F4B684",
"5 c #FCD684",
"6 c #F4D6A4",
"7 c #F4F6B4",
"8 c None",
/* pixels */
"888888888888888888888888888888888888888888888888888888888888",
"888888888888888888888888888888888888888888888888888888888888",
"888888888888888888888888888888888888888888888888888888888888",
"888888888888888888888888888888888888888888888888888888888888",
"888888888888888888888888888888888888888888888888888888888888",
"88888888888888888888@13331@888888888888888888888888888888888",
"8888888888888888888+@@@@331+88888888888888888888888888888888",
"888888888888888888+23331@1+3@8888888888888888888888888888888",
"888888888888888888+O@@@12+33355>8888888888888888888888888888",
"888888888888888888>555>>O11>55555888888888888888888888888888",
"88888888888888888>>>>>>>>@***>>>5588888888888888888888888888",
"88888888888888888>;;>>44<;*<>888>5>8888888888888888888888888",
"88888888888888888;4<>666666<>8888>58888888888888888888888888",
"88888888888888888;46>4<;666<88888>58888888888888888888888888",
"8888888888888888*=464,;4;66<88888>58888888888888888888888888",
"8888888888888888*>;6664==<;;88888>>8888888888888888888888888",
"888888888888888>*>=6666466<88888>>88888888888888888888888888",
"88888888888888>55**;666666688888>>88888888888888888888888888",
"88888888888888>5>*8-466666;8888>>888888888888888888888888888",
"88888888888888***8+2;66;;188111@8888888888888888888888888888",
"8888888888888>5>@@+1@=46-@1133331888888888888888888888888888",
"888888888888@@113@+2@@==3@1331@@@888888888888888888888888888",
"8888888888@1333332@+@11;;133@3133188888888888888888888888888",
"8888888888+@@@@@@1@&>+$$4;3@33133@88888888888888888888888888",
"8888888888131@2+2@1&&$%%$4=133@33+88888888888888888888888888",
"888888888@31@1+@1@1$$%#%%#;=33@11+88888888888888888888888888",
"888888888+Xooo@1@$$$%%%#%$#-12@1@888888888888888888888888888",
"888888888oooo@1@$%$%%%%$#$$#11@2@88888<#%8888888888888888888",
"88888888-o---@1$%%%#%%$$#.#.@2@1@888;46#%%888888888888888888",
"88888888<;---$$%$%%%#$$#.#.O@1@2@888=;<##%888888888888888888",
"88888888,:--$%%$%#%$$.#.#.O@+1@1@8<6=666$$888888888888888888",
"88888888<$$$%$$%%$.$##...1O@+1@1@#,4X;,4#$%88888888888888888",
"88888888$%#$#$%%$##.#..1+@@1O11@#$#==4666$%88888888888888888",
"8888888+$%%#$%$$#$#..++OOO11O@1#$##..=;<;#$88888888888888888",
"8888888+$%%%#$##$..@+@1O1111@+1#$.$.#X466$$88888888888888888",
"8888888+2#%$$##$..@1111+1111@O@#$.$#.#=;;.#88888888888888888",
"8888888+@1#$$$#.8@111111@111+O+#$##$.....8888888888888888888",
"88888888+@@#$#.88@111111@1@474O+$$#..##.88888888888888888888",
"888888888+++..88;@11@1111@4777<.#$$$$#.888888888888888888888",
"88888888888>55*84111@1111@7776<$$.....8888888888888888888888",
"88888888888>5>*;4111@1111<76664$$$$$$#8888888888888888888888",
"88888888888*>>*,4111@3311466664#$$##.88888888888888888888888",
"88888888888>***<4111@33114666648...8888888888888888888888888",
"8888888888>55*;4,1111331<66666688888888888888888888888888888",
"8888888888>5>;,4;11313314666666<8888888888888888888888888888",
"8888888888*>;,44;113333<466666648888888888888888888888888888",
"8888888888*;4444<1133314466666618888888888888888888888888888",
"8888888888+44444,@133314466666331888888888888888888888888888",
"888888888+1444444@113116466663333@88888888888888888888888888",
"88888888+11144444@@11116466633333188888888888888888888888888",
"8888888+111144444;@131164616333331+8888888888888888888888888",
"8888888+111144444,@131144616333633@8888888888888888888888888",
"888888;4111144444<+111@44616336663@8888888888888888888888888",
"888888<4411114444<;@1@@4<61133666618888888888888888888888888",
"888888,4411114444<;@1@@4,61133666618888888888888888888888888",
"88888;4444111444,<<+@@+<;6116366666;888888888888888888888888",
"8888;,4444111444<44;++O;;6116666666;888888888888888888888888",
"8888;4444444144444<=8888:4616666666<888888888888888888888888",
"888;,4444444144444=888888<616666666<888888888888888888888888",
"888;4444444414444=8888888;6166666664888888888888888888888888",
"88;,444444444444=8888888884666666666888888888888888888888888",
"88;44414444444<=8888888888:466633366;88888888888888888888888",
"88,444414444<;=888888888888;<6336666<88888888888888888888888",
"8;444441144;=888888888888888:<1666664;8888888888888888888888",
"8;44444411;=88888888888888888;16666664;888888888888888888888",
";<4444441@=888888888888888888:@6666664;888888888888888888888",
";444444<@+88888888888888888888+466666;4;88888888888888888888",
"=4444<,<+88888888888888888888884;66664;,;8888888888888888888",
"=<<<,<<<=8888888888888888888888;4;6644;46<888888888888888888",
"=;<<<<<;=88888888888888888888888<4;<444,66,;8888888888888888",
"8;<<<<,;;=88888888888888888888888<4;<444466<;888888888888888",
"8=<,<<<;<=888888888888888888888888<4;444466;XX88888888888888",
"8=;<<<<<,<;888888888888888888888888;4,4446,X==88888888888888",
"88=<<<,<<<;8888888888888888888888888<4444,-===X8888888888888",
"88=<,<<<<,;8888888888888888888888888;<4<,;;====X888888888888",
"88=;<<,<<;X8888888888888888888888888XXXX;;4,===X888888888888",
"88=;,<<<,;X88888888888888888888888888X===;4,===X888888888888",
"88=;<<,<;X=X88888888888888888888888888X===;,;===X88888888888",
"88XX<,;XX==X888888888888888888888888888X===;,===X88888888888",
"88X=XX=====X8888888888888888888888888888X===;;===X8888888888",
"888X==;====X88888888888888888888888888888====;====X888888888",
"888X==,====X88888888888888888888888888888X====;===X888888888",
"8888X=,=====X88888888888888888888888888888X===;====888888888",
"8888X=;;====X888888888888888888888888888888X===;===X88888888",
"8888X==;====X8888888888888888888888888888888X==;===X88888888",
"88888X=;=====X8888888888888888888888888888888X=;===X88888888",
"88888X=;;====X88888888888888888888888888888888=;====X8888888",
"88888X;=====X888888888888888888888888888888888X;;;;XX8888888",
"88888X;=====X888888888888888888888888888888888X===;XX8888888",
"888888;===;XX888888888888888888888888888888888X=====XX888888",
"888888=;;;=;88888888888888888888888888888888888XX=====X88888",
"888888=====;;888888888888888888888888888888888888XX====X8888",
"88888X;;===;=888888888888888888888888888888888888X===;;=8888",
"88888=;;;=X==8888888888888888888888888888888888888X=;;;;=888",
"8888=;;;;===X8888888888888888888888888888888888888X=;;;;;=88",
"88X;;;;;;=XXX88888888888888888888888888888888888888==;;;;;88",
"8=;<44;;=XX=888888888888888888888888888888888888888XX=;;;;=8",
"8:;;;;;== 8888888888888888888888888888888888888888888XX=<4=8",
"8XX==XXXX8888888888888888888888888888888888888888888888X=;;X",
"88888888888888888888888888888888888888888888888888888888XXXX"
};
