/* XPM */
static char *result[] = {
/* columns rows colors chars-per-pixel */
"60 100 31 1 ",
"  c #141214",
". c #540204",
"X c #542204",
"o c #5C2604",
"O c #4C4A04",
"+ c #044244",
"@ c #045254",
"# c #246E6C",
"$ c #840204",
"% c #CC0204",
"& c #FC1214",
"* c #845E04",
"= c #AC7A04",
"- c #844224",
"; c #8C4624",
": c #C46244",
"> c #CC6A4C",
", c #D4A634",
"< c #E48E54",
"1 c #E49664",
"2 c #448EA4",
"3 c #4492A4",
"4 c #04CACC",
"5 c #64C6F4",
"6 c #F4B684",
"7 c #FCD684",
"8 c #F4D6A4",
"9 c #F4F6B4",
"0 c #84D6E4",
"q c #FCFEFC",
"w c None",
/* pixels */
"wwwwwwwwwwwwwwwwwwwwwwwwwwwwwwwwwwwwwwwwwwwwwwwwwwwwwwwwwwww",
"wwwwwwwwwwwwwwwwwwwwwwwwwwwwwwwwwwwwwwwwwwwwwwwwwwwwwwwwwwww",
"wwwwwwwwwwwwwwwwwwwwwwwwwwwwwwwwwwwwwwwwwwwwwwwwwwwwwwwwwwww",
"wwwwwwwwwwwwwwwwwwwww#25552#wwwwwwwwwwwwwwwwwwwwwwwwwwwwwwww",
"wwwwwwwwwwwwwwwwwwww@####552@wwwwwwwwwwwwwwwwwwwwwwwwwwwwwww",
"wwwwwwwwwwwwwwwwwww@25552#2@5#wwwwwwwwwwwwwwwwwwwwwwwwwwwwww",
"wwwwwwwwwwwwwwwwwww@@###22@55577,wwwwwwwwwwwwwwwwwwwwwwwwwww",
"wwwwwwwwwwwwwwwwwww,777,,@22,77777wwwwwwwwwwwwwwwwwwwwwwwwww",
"wwwwwwwwwwwwwwwwww,,,,,,,,#===,,,77wwwwwwwwwwwwwwwwwwwwwwwww",
"wwwwwwwwwwwwwwwwww,::,,661:=1,www,7,wwwwwwwwwwwwwwwwwwwwwwww",
"wwwwwwwwwwwwwwwwww:6<,8888881,wwww,7wwwwwwwwwwwwwwwwwwwwwwww",
"wwwwwwwwwwwwwwwwww:68,6<:8881wwwww,7wwwwwwwwwwwwwwwwwwwwwwww",
"wwwwwwwwwwwwwwwww=-68614O:881wwwww,7wwwwwwwwwwwwwwwwwwwwwwww",
"wwwwwwwwwwwwwwwww=,:886q081::wwwww,,wwwwwwwwwwwwwwwwwwwwwwww",
"wwwwwwwwwwwwwwww,=,-88818881wwwww,,wwwwwwwwwwwwwwwwwwwwwwwww",
"wwwwwwwwwwwwwww,77==:8888888wwwww,,wwwwwwwwwwwwwwwwwwwwwwwww",
"wwwwwwwwwwwwwww,7,=w;688888:wwww,,wwwwwwwwwwwwwwwwwwwwwwwwww",
"wwwwwwwwwwwwwww===w@3:88::2ww222#wwwwwwwwwwwwwwwwwwwwwwwwwww",
"wwwwwwwwwwwwww,7,##@2#-68-#2255552wwwwwwwwwwwwwwwwwwwwwwwwww",
"wwwwwwwwwwwww##225#@3##--5#2552###wwwwwwwwwwwwwwwwwwwwwwwwww",
"wwwwwwwwwww#2555552#@#2::#255#52552wwwwwwwwwwwwwwwwwwwwwwwww",
"wwwwwwwwwww@######3#*,%%6:25#55255#wwwwwwwwwwwwwwwwwwwwwwwww",
"wwwwwwwwwww252#3@2#2*%&&%6;#555#55@wwwwwwwwwwwwwwwwwwwwwwwww",
"wwwwwwwwww#52#2@#2#%%&$&&$:-255#32@wwwwwwwwwwwwwwwwwwwwwwwww",
"wwwwwwwwww@Xooo#2%%%&&&$&%$;#23#23#wwwwwwwwwwwwwwwwwwwwwwwww",
"wwwwwwwwwwoooo#2%&%&&&&%$%%$#22#32#wwwwwwwwwwwwwwwwwwwwwwwww",
"wwwwwwwww;o;;;#%&&&$&&%%$.$.+#2##2#wwwww1$&wwwwwwwwwwwwwwwww",
"wwwwwwwww1:;;%%&%&&&$%%$.$.#++22#3#www:68$&&wwwwwwwwwwwwwwww",
"wwwwwwwww<>;%&&%&$&%%.$.$.#+#+#3#22@ww-:1$$&wwwwwwwwwwwwwwww",
"wwwwwwwww%%%&%%&&%.%$$...2+#2+#2#32@18-888%%wwwwwwwwwwwwwwww",
"wwwwwwww%&$%$%&&%$$.$..2@+@#2+#2#22$<6X:<:$%&wwwwwwwwwwwwwww",
"wwwwwww@%&&$%&%%$%$..@@@+@#22#+2#2$%$--688%%&wwwwwwwwwwwwwww",
"wwwwwww@%&&&$%$$%..##@#2+2222#w2#$%$...-::$%%wwwwwwwwwwwwwww",
"wwwwwww@3$&%%$$%..##22222#222@w22$%..$$X68%%%wwwwwwwwwwwwwww",
"wwwwwww@#2$%%%$.ww#222222#22#++#2$%.%.$$-:-.$wwwwwwwwwwwwwww",
"wwwwwwww@##$%$.www#22#2222##696@#$%$%%.....wwwwwwwwwwwwwwwww",
"wwwwwwwww@@@..www:#22#2222#6999@#@%%..$$$wwwwwwwwwwwwwwwwwww",
"wwwwwwwwwww,77=w:6222#222219998$@@$%%%%$.wwwwwwwwwwwwwwwwwww",
"wwwwwwwwwww,7,=w1622225522698881%%%.....wwwwwwwwwwwwwwwwwwww",
"wwwwwwwwwww=,,=:<622525522888881%%%%%%%$wwwwwwwwwwwwwwwwwwww",
"wwwwwwwwwww,==w:6122555521888886$%%$$..wwwwwwwwwwwwwwwwwwwww",
"wwwwwwwwww,7,=w:6<22555521888886w...wwwwwwwwwwwwwwwwwwwwwwww",
"wwwwwwwwww,7,=:66:225555268888881wwwwwwwwwwwwwwwwwwwwwwwwwww",
"wwwwwwwwww=,,:<66:225552168888886wwwwwwwwwwwwwwwwwwwwwwwwwww",
"wwwwwwwwwww=:66661225552668888882wwwwwwwwwwwwwwwwwwwwwwwwwww",
"wwwwwwwwww=@66666<#225226688885552wwwwwwwwwwwwwwwwwwwwwwwwww",
"wwwwwwwwww@2666666#222228688855555#wwwwwwwwwwwwwwwwwwwwwwwww",
"wwwwwwwww@22266666##252286888555552wwwwwwwwwwwwwwwwwwwwwwwww",
"wwwwwwww@222266666:#252286828555852@wwwwwwwwwwwwwwwwwwwwwwww",
"wwwwwwww@222266666<@222#66828558882#wwwwwwwwwwwwwwwwwwwwwwww",
"wwwwwww@22222666661:#2##668225588882wwwwwwwwwwwwwwwwwwwwwwww",
"wwwwwww:622222666111####618228588882wwwwwwwwwwwwwwwwwwwwwwww",
"wwwwww:6662222666<11@##@1:8228888886wwwwwwwwwwwwwwwwwwwwwwww",
"wwwwww<6666222666111:@@+::8228888886wwwwwwwwwwwwwwwwwwwwwwww",
"wwwww:66666222666161-wwww:8828888886wwwwwwwwwwwwwwwwwwwwwwww",
"wwwww:6666666266666-wwwwww1828888888:wwwwwwwwwwwwwwwwwwwwwww",
"wwww:6666666626666-wwwwwww:828888888:wwwwwwwwwwwwwwwwwwwwwww",
"wwww1666666662666-wwwwwwwww6888888881wwwwwwwwwwwwwwwwwwwwwww",
"www:666666666666-wwwwwwwwww:188855588:wwwwwwwwwwwwwwwwwwwwww",
"www166266666666:wwwwwwwwwwww>18558888:wwwwwwwwwwwwwwwwwwwwww",
"ww:66662666661-wwwwwwwwwwwwww:12888881:wwwwwwwwwwwwwwwwwwwww",
"w:<666622661:-wwwwwwwwwwwwwwww>2888886:wwwwwwwwwwwwwwwwwwwww",
"w:666666221-wwwwwwwwwwwwwwwwwww#68888:<:wwwwwwwwwwwwwwwwwwww",
":16666662#-wwwwwwwwwwwwwwwwwwww@688886:6:wwwwwwwwwwwwwwwwwww",
":6666661#@wwwwwwwwwwwwwwwwwwwwww6:8886:66wwwwwwwwwwwwwwwwwww",
"-6666111@wwwwwwwwwwwwwwwwwwwwwww>168666<8<wwwwwwwwwwwwwwwwww",
"-11111<1-wwwwwwwwwwwwwwwwwwwwwwww6:66666881:wwwwwwwwwwwwwwww",
"-:11111:-wwwwwwwwwwwwwwwwwwwwwwww16:1666688<:wwwwwwwwwwwwwww",
"w:1<11<::-wwwwwwwwwwwwwwwwwwwwwwww16:666688:XXwwwwwwwwwwwwww",
"w-11111:1-wwwwwwwwwwwwwwwwwwwwwwwww16<6668<X--wwwwwwwwwwwwww",
"w-:1111111-wwwwwwwwwwwwwwwwwwwwwwwww66666<----Xwwwwwwwwwwwww",
"ww-1<11<1<:wwwwwwwwwwwwwwwwwwwwwwwww:166<::---Xwwwwwwwwwwwww",
"ww-:1111111wwwwwwwwwwwwwwwwwwwwwwwwwXXXX:6<----Xwwwwwwwwwwww",
"www:1<11<1:XwwwwwwwwwwwwwwwwwwwwwwwwwX---:6:---Xwwwwwwwwwwww",
"www-11<11:XXwwwwwwwwwwwwwwwwwwwwwwwwwwX---:<:---Xwwwwwwwwwww",
"www-1111<:XXwwwwwwwwwwwwwwwwwwwwwwwwwwX---:<:---Xwwwwwwwwwww",
"wwwX:11<:X-owwwwwwwwwwwwwwwwwwwwwwwwwwwX---:<----Xwwwwwwwwww",
"www-X<:X---.wwwwwwwwwwwwwwwwwwwwwwwwwwwwX---::---Xwwwwwwwwww",
"wwwX-XX-----Xwwwwwwwwwwwwwwwwwwwwwwwwwwww---------Xwwwwwwwww",
"wwww--<-----XwwwwwwwwwwwwwwwwwwwwwwwwwwwwX----:----wwwwwwwww",
"wwww--<-----XwwwwwwwwwwwwwwwwwwwwwwwwwwwwwX---:----wwwwwwwww",
"wwwwX-::----XwwwwwwwwwwwwwwwwwwwwwwwwwwwwwwX---:---Xwwwwwwww",
"wwwww--:-----XwwwwwwwwwwwwwwwwwwwwwwwwwwwwwwX---:--Xwwwwwwww",
"wwwww--:-----XwwwwwwwwwwwwwwwwwwwwwwwwwwwwwwwX--:---Xwwwwwww",
"wwwwwX-::----Xwwwwwwwwwwwwwwwwwwwwwwwwwwwwwwww--:---Xwwwwwww",
"wwwwwX:-----XwwwwwwwwwwwwwwwwwwwwwwwwwwwwwwwwwX:----Xwwwwwww",
"wwwwww:----XXwwwwwwwwwwwwwwwwwwwwwwwwwwwwwwwwwX-::::-Xwwwwww",
"wwwwww:---:XXwwwwwwwwwwwwwwwwwwwwwwwwwwwwwwwwwX----:-Xwwwwww",
"wwwwww-:::-X:wwwwwwwwwwwwwwwwwwwwwwwwwwwwwwwwwwXX-----Xwwwww",
"wwwwww;-----::wwwwwwwwwwwwwwwwwwwwwwwwwwwwwwwwwwwXX---Xwwwww",
"wwwwwX::---X:-wwwwwwwwwwwwwwwwwwwwwwwwwwwwwwwwwwwX--;::Xwwww",
"wwwww-:::-----wwwwwwwwwwwwwwwwwwwwwwwwwwwwwwwwwwwwX-::::wwww",
"wwww;::::----Xwwwwwwwwwwwwwwwwwwwwwwwwwwwwwwwwwwwww-::::-www",
"wwww-::::--XXXwwwwwwwwwwwwwwwwwwwwwwwwwwwwwwwwwwwww-:::::;ww",
"www-:::::-X--wwwwwwwwwwwwwwwwwwwwwwwwwwwwwwwwwwwwwwX-:::::ww",
"wwX:::::-X wwwwwwwwwwwwwwwwwwwwwwwwwwwwwwwwwwwwwwwwwX-::::ww",
"w-:166::- wwwwwwwwwwwwwwwwwwwwwwwwwwwwwwwwwwwwwwwwwwwX-:::-w",
"w>:::::X wwwwwwwwwwwwwwwwwwwwwwwwwwwwwwwwwwwwwwwwwwwwwX-16-w",
"wXX--X  wwwwwwwwwwwwwwwwwwwwwwwwwwwwwwwwwwwwwwwwwwwwwwwX-::X",
"wwwwwwwwwwwwwwwwwwwwwwwwwwwwwwwwwwwwwwwwwwwwwwwwwwwwwwwwXXXX"
};
