/* XPM */
static char *result[] = {
/* columns rows colors chars-per-pixel */
"60 100 30 1 ",
"  c #141214",
". c #540204",
"X c #542204",
"o c #5C2604",
"O c #4C4A04",
"+ c #044244",
"@ c #045254",
"# c #246E6C",
"$ c #840204",
"% c #CC0204",
"& c #FC1214",
"* c #AC7A04",
"= c #844224",
"- c #8C4624",
"; c #C46244",
": c #CC6A4C",
"> c #D4A634",
", c #E48E54",
"< c #E49664",
"1 c #448EA4",
"2 c #4492A4",
"3 c #04CACC",
"4 c #64C6F4",
"5 c #F4B684",
"6 c #FCD684",
"7 c #F4D6A4",
"8 c #F4F6B4",
"9 c #84D6E4",
"0 c #FCFEFC",
"q c None",
/* pixels */
"qqqqqqqqqqqqqqqqqqqqqqqqqqqqqqqqqqqqqqqqqqqqqqqqqqqqqqqqqqqq",
"qqqqqqqqqqqqqqqqqqqqqqqqqqqqqqqqqqqqqqqqqqqqqqqqqqqqqqqqqqqq",
"qqqqqqqqqqqqqqqqqqqqqqqqqqqqqqqqqqqqqqqqqqqqqqqqqqqqqqqqqqqq",
"qqqqqqqqqqqqqqqqqqqqqqqqqqqqqqqqqqqqqqqqqqqqqqqqqqqqqqqqqqqq",
"qqqqqqqqqqqqqqqqqqqqqqqqqqqqqqqqqqqqqqqqqqqqqqqqqqqqqqqqqqqq",
"qqqqqqqqqqqqqqqqqqqq#14441#qqqqqqqqqqqqqqqqqqqqqqqqqqqqqqqqq",
"qqqqqqqqqqqqqqqqqqq@####441@qqqqqqqqqqqqqqqqqqqqqqqqqqqqqqqq",
"qqqqqqqqqqqqqqqqqq@14441#1@4#qqqqqqqqqqqqqqqqqqqqqqqqqqqqqqq",
"qqqqqqqqqqqqqqqqqq@@###11@44466>qqqqqqqqqqqqqqqqqqqqqqqqqqqq",
"qqqqqqqqqqqqqqqqqq>666>>@11>6>>66qqqqqqqqqqqqqqqqqqqqqqqqqqq",
"qqqqqqqqqqqqqqqqq>>>>>>>>#***qq>66qqqqqqqqqqqqqqqqqqqqqqqqqq",
"qqqqqqqqqqqqqqqqq>;;>>55<;*<>qqq>6>qqqqqqqqqqqqqqqqqqqqqqqqq",
"qqqqqqqqqqqqqqqqq;5,>777777<>qqqq>6qqqqqqqqqqqqqqqqqqqqqqqqq",
"qqqqqqqqqqqqqqqqq;57>5,;777<qqqqq>6qqqqqqqqqqqqqqqqqqqqqqqqq",
"qqqqqqqqqqqqqqqq*=575<3O;77<qqqqq>>qqqqqqqqqqqqqqqqqqqqqqqqq",
"qqqqqqqqqqqqqqqq*>;775097<;;qqqqq>>qqqqqqqqqqqqqqqqqqqqqqqqq",
"qqqqqqqqqqqqqqq>**=777,777<qqqqqq>>qqqqqqqqqqqqqqqqqqqqqqqqq",
"qqqqqqqqqqqqqqq>6**;7777777qqqqq>>qqqqqqqqqqqqqqqqqqqqqqqqqq",
"qqqqqqqqqqqqqqq>66*=577777;qqqqq>qqqqqqqqqqqqqqqqqqqqqqqqqqq",
"qqqqqqqqqqqqqq****@%%;;;;1qq111#qqqqqqqqqqqqqqqqqqqqqqqqqqqq",
"qqqqqqqqqqqqqq>6##%&&%5;=#1144441qqqqqqqqqqqqqqqqqqqqqqqqqqq",
"qqqqqqqqqqqq##114#%%&&%5=#1441###qqqqqqqqqqqqqqqqqqqqqqqqqqq",
"qqqqqqqqqq#144444%&&$&&$;-#4#41441qqqqqqqqqqqqqqqqqqqqqqqqqq",
"qqqqqqqqqq@#####%&&&&$%%$=1#44144#qqqqqqqqqqqqqqqqqqqqqqqqqq",
"qqqqqqqqqq141#1%%&&&%%$.$=#444#44@qqqqqqqqqqqqqqqqqqqqqqqqqq",
"qqqqqqqqq@oXo1%&&$&%%%..;=1#44#21@qqqqqqqqqqqqqqqqqqqqqqqqqq",
"qqqqqqqqqoooo%%&&&$%$.$.=41@11#1#qqqqqqqqqqqqqqqqqqqqqqqqqqq",
"qqqqqqqq-o--%&%$&%%.%$.4441@@1#2#qqqqq<$&qqqqqqqqqqqqqqqqqqq",
"qqqqqqqq-:-%&%%&.%$$..14441++2#1#qqq;57$&&qqqqqqqqqqqqqqqqqq",
"qqqqqqqq,:%&&%&&%.$..4#444#++1#2#qqq=;<$$&qqqqqqqqqqqqqqqqqq",
"qqqqqqqq%%&&%&&%$$..24#141+#+11#2@<7=777%%&qqqqqqqqqqqqqqqqq",
"qqqqqqq%%$%$&&%$$..##11#11+#+11#1@,<X;,5$%&qqqqqqqqqqqqqqqqq",
"qqqqqq@%&&$%&%$%.@#@@#11@##1+11#$%===5777%&&qqqqqqqqqqqqqqqq",
"qqqqqq@%&&&$%$%.+@@#@@@+++11##1$%$$..=;<;$%%qqqqqqqqqqqqqqqq",
"qqqqqq@1$&%%$%.q@@@#@111@111@@1%%.%.$.577%%%qqqqqqqqqqqqqqqq",
"qqqqqq@#1$%%%$.qq@#1#111@111++#%%.%%$$=;;.$$qqqqqqqqqqqqqqqq",
"qqqqqqq@##$%$.>*q#11#1111#1#@q@%%$$%.....qqqqqqqqqqqqqqqqqqq",
"qqqqqqqq@@@..>>*q#1111111##585+$%%$.$%$.qqqqqqqqqqqqqqqqqqqq",
"qqqqqqqqqqqq*>>*;#11#1111#5888<.$%%%%$.qqqqqqqqqqqqqqqqqqqqq",
"qqqqqqqqqqqqq**q5111#4411#8887<%$.....qqqqqqqqqqqqqqqqqqqqqq",
"qqqqqqqqqqqq>66*5111#4411<87775%%%%%%$qqqqqqqqqqqqqqqqqqqqqq",
"qqqqqqqqqqqq>6>;511414411577775%%%$$.qqqqqqqqqqqqqqqqqqqqqqq",
"qqqqqqqqqqqq*>>;511414411577777...qqqqqqqqqqqqqqqqqqqqqqqqqq",
"qqqqqqqqqqqqq*;5,1141441,777777<qqqqqqqqqqqqqqqqqqqqqqqqqqqq",
"qqqqqqqqqqqq*;55;114441157777775qqqqqqqqqqqqqqqqqqqqqqqqqqqq",
"qqqqqqqqqqqq;,55;114441<57777775;qqqqqqqqqqqqqqqqqqqqqqqqqqq",
"qqqqqqqqqqq,5555<114441557777771#qqqqqqqqqqqqqqqqqqqqqqqqqqq",
"qqqqqqqqqq@55555,#114115577774411qqqqqqqqqqqqqqqqqqqqqqqqqqq",
"qqqqqqqqq@1555555#111117577744441qqqqqqqqqqqqqqqqqqqqqqqqqqq",
"qqqqqqqq@11155555##14117577744444#qqqqqqqqqqqqqqqqqqqqqqqqqq",
"qqqqqqq@111155555;#141175717444741@qqqqqqqqqqqqqqqqqqqqqqqqq",
"qqqqqq@1111155555,@111#55717447774#qqqqqqqqqqqqqqqqqqqqqqqqq",
"qqqqqq51111155555<<#1##557114477771qqqqqqqqqqqqqqqqqqqqqqqqq",
"qqqqq;5511111555<<<@##@5<7117477777;qqqqqqqqqqqqqqqqqqqqqqqq",
"qqqqq;5551111555,<<@##@<;7117477777;qqqqqqqqqqqqqqqqqqqqqqqq",
"qqqq;,5555111555<55<@@+;;7117777777;qqqqqqqqqqqqqqqqqqqqqqqq",
"qqqq;5555511155555<:qqqq;5717777777<qqqqqqqqqqqqqqqqqqqqqqqq",
"qqq;<5555555155555;qqqqqq<717777777<qqqqqqqqqqqqqqqqqqqqqqqq",
"qqq;5555555515555=qqqqqqq;7177777775qqqqqqqqqqqqqqqqqqqqqqqq",
"qq;,555555555555=qqqqqqqqq5777777777qqqqqqqqqqqqqqqqqqqqqqqq",
"qq;55555555555<=qqqqqqqqqq;577774447;qqqqqqqqqqqqqqqqqqqqqqq",
"qq<555155555<;=qqqqqqqqqqqq:<7744777,qqqqqqqqqqqqqqqqqqqqqqq",
"q;555551555;=qqqqqqqqqqqqqqq;<7177775;qqqqqqqqqqqqqqqqqqqqqq",
"q;5555511<;=qqqqqqqqqqqqqqqqq:<1777775;qqqqqqqqqqqqqqqqqqqqq",
";,5555551#=qqqqqqqqqqqqqqqqqqq;#57777;5;qqqqqqqqqqqqqqqqqqqq",
";555555,#@qqqqqqqqqqqqqqqqqqqqq@577775;,;qqqqqqqqqqqqqqqqqqq",
"=5555<<<@qqqqqqqqqqqqqqqqqqqqqqq<;7755;57<qqqqqqqqqqqqqqqqqq",
"=<<<<<<<=qqqqqqqqqqqqqqqqqqqqqqq:5;<555,77;qqqqqqqqqqqqqqqqq",
"=;<<<<,;=qqqqqqqqqqqqqqqqqqqqqqqq<5;<555577;qqqqqqqqqqqqqqqq",
"q=<,<<<;;=qqqqqqqqqqqqqqqqqqqqqqqq<5;555577;=qqqqqqqqqqqqqqq",
"q=<<<<,;<=qqqqqqqqqqqqqqqqqqqqqqqqq<5,55577;XXqqqqqqqqqqqqqq",
"q=;<,<<<<;=qqqqqqqqqqqqqqqqqqqqqqqq:555557<X==qqqqqqqqqqqqqq",
"qq=<<<<<,<;qqqqqqqqqqqqqqqqqqqqqqqqq,5555,====Xqqqqqqqqqqqqq",
"qq=<,<<<<<;qqqqqqqqqqqqqqqqqqqqqqqqq:<55,;,-===Xqqqqqqqqqqqq",
"qq=;<<,<,;Xqqqqqqqqqqqqqqqqqqqqqqqqqq=XX;;5<====Xqqqqqqqqqqq",
"qq=;<<<<;X=qqqqqqqqqqqqqqqqqqqqqqqqqqqX===;,;-===qqqqqqqqqqq",
"qq=;<<<,;X=qqqqqqqqqqqqqqqqqqqqqqqqqqqX===;,;====qqqqqqqqqqq",
"qqX;<,,;X==qqqqqqqqqqqqqqqqqqqqqqqqqqqqX===;,;=-=Xqqqqqqqqqq",
"qqXX,;=X===XqqqqqqqqqqqqqqqqqqqqqqqqqqqqX===;,-o=Xqqqqqqqqqq",
"qqX=XX=====Xqqqqqqqqqqqqqqqqqqqqqqqqqqqqq====;====Xqqqqqqqqq",
"qqqX==;====XqqqqqqqqqqqqqqqqqqqqqqqqqqqqqX=====;==Xqqqqqqqqq",
"qqqX==,====XqqqqqqqqqqqqqqqqqqqqqqqqqqqqqqX====;===Xqqqqqqqq",
"qqqqX=,=====XqqqqqqqqqqqqqqqqqqqqqqqqqqqqqqX====;==Xqqqqqqqq",
"qqqqX=;;====XqqqqqqqqqqqqqqqqqqqqqqqqqqqqqqqX===;==Xqqqqqqqq",
"qqqqX==;====XqqqqqqqqqqqqqqqqqqqqqqqqqqqqqqqqX===;==Xqqqqqqq",
"qqqqqX=;=====Xqqqqqqqqqqqqqqqqqqqqqqqqqqqqqqqq===;==Xqqqqqqq",
"qqqqqX=;;====XqqqqqqqqqqqqqqqqqqqqqqqqqqqqqqqqX=;====Xqqqqqq",
"qqqqqX;=====XqqqqqqqqqqqqqqqqqqqqqqqqqqqqqqqqqX=;;;;=Xqqqqqq",
"qqqqqX;=====XqqqqqqqqqqqqqqqqqqqqqqqqqqqqqqqqqX====;=Xqqqqqq",
"qqqqqq;===;XXqqqqqqqqqqqqqqqqqqqqqqqqqqqqqqqqqX=====XXqqqqqq",
"qqqqqq=;;;==;qqqqqqqqqqqqqqqqqqqqqqqqqqqqqqqqqqXX=====Xqqqqq",
"qqqqqq=====X;;qqqqqqqqqqqqqqqqqqqqqqqqqqqqqqqqqqqXX==;;Xqqqq",
"qqqqqX;;====;=qqqqqqqqqqqqqqqqqqqqqqqqqqqqqqqqqqqX===;;=qqqq",
"qqqqq=;;;=X===qqqqqqqqqqqqqqqqqqqqqqqqqqqqqqqqqqqqX=;;;;=qqq",
"qqqq=;;;;====XqqqqqqqqqqqqqqqqqqqqqqqqqqqqqqqqqqqqX=;;;;;=qq",
"qqq=;;;;;=XXXXqqqqqqqqqqqqqqqqqqqqqqqqqqqqqqqqqqqqq==;;;;;qq",
"q=;<5<;;;XX==qqqqqqqqqqqqqqqqqqqqqqqqqqqqqqqqqqqqqqXX=;;;;=q",
"q:;;;;;== qqqqqqqqqqqqqqqqqqqqqqqqqqqqqqqqqqqqqqqqqqqXX=<5=q",
"qXX==XXXXqqqqqqqqqqqqqqqqqqqqqqqqqqqqqqqqqqqqqqqqqqqqqqX=;;X",
"qqqqqqqqqqqqqqqqqqqqqqqqqqqqqqqqqqqqqqqqqqqqqqqqqqqqqqqqXXXX"
};
