/* XPM */
static char *result[] = {
/* columns rows colors chars-per-pixel */
"60 100 29 1 ",
"  c #141214",
". c #540204",
"X c #542204",
"o c #5C2604",
"O c #044244",
"+ c #045254",
"@ c #246E6C",
"# c #840204",
"$ c #CC0204",
"% c #FC1214",
"& c #845E04",
"* c #AC7A04",
"= c #844224",
"- c #8C4624",
"; c #C46244",
": c #CC6A4C",
"> c #D4A634",
", c #E48E54",
"< c #E49664",
"1 c #448EA4",
"2 c #4492A4",
"3 c #64C6F4",
"4 c #F4B684",
"5 c #FCD684",
"6 c #F4D6A4",
"7 c #F4F6B4",
"8 c #84D6E4",
"9 c #FCFEFC",
"0 c None",
/* pixels */
"000000000000000000000000000000000000000000000000000000000000",
"000000000000000000000000000000000000000000000000000000000000",
"000000000000000000000000000000000000000000000000000000000000",
"000000000000000000000@13331@00000000000000000000000000000000",
"00000000000000000000+@@@@331+0000000000000000000000000000000",
"0000000000000000000+13331@1+3@000000000000000000000000000000",
"0000000000000000000++@@@11+33355>000000000000000000000000000",
"0000000000000000000>555>>+11>5555500000000000000000000000000",
"000000000000000000>>>>>>>>@***>>>550000000000000000000000000",
"000000000000000000>;;>>44<;*<>000>5>000000000000000000000000",
"000000000000000000;4,>666666<>0000>5000000000000000000000000",
"000000000000000000;46>4<;666<00000>5000000000000000000000000",
"00000000000000000*=464<==;66>00000>5000000000000000000000000",
"00000000000000000*>;664986<;*00000>>000000000000000000000000",
"0000000000000000>*>=666<666<00000>>0000000000000000000000000",
"000000000000000>55**;666666600000>>0000000000000000000000000",
"000000000000000>5>*0-466666;0000>>00000000000000000000000000",
"00000000000000>***0+1;66;;100111@000000000000000000000000000",
"00000000000000>5>@@+2@=46=@113333100000000000000000000000000",
"0000000000000@@113@+2@@=-3@1331@@@00000000000000000000000000",
"00000000000@1333331@+@1;;@133@313310000000000000000000000000",
"00000000000+@@@@@@2@&>$$4;13@33133@0000000000000000000000000",
"00000000000131@1+1@1&$%%$4=@333@33+0000000000000000000000000",
"0000000000@31@1+@1@$$%#%%#;-133@11+0000000000000000000000000",
"0000000000+oXoo@1$$$%%%#%$#=@11@21@0000000000000000000000000",
"0000000000oooo@1$%$%%%%$#$$#@12@12@0000000000000000000000000",
"000000000-o---@$%%%#%%$$#.#.O@1@@1@00000<#%00000000000000000",
"000000000,:--$$%$%%%#$$#.#.@OO12@2@000;46#%%0000000000000000",
"000000000,:-$%%$%#%$$.#.#.@O@O@1@11+00=;<##%0000000000000000",
"000000000$$$%$$%%$.$##...1O@1O@2@21+<6=666$$0000000000000000",
"00000000$%#$#$%%$##.#..1+O+@1O@1@11#,4X;,;#$%000000000000000",
"0000000+$%%#$%$$#$#..+++O+@11@O1@1#$#==466$$%000000000000000",
"0000000+$%%%#$##$..@@+@1O1111@01@#$#...=;;#$$000000000000000",
"0000000+1#%$$##$..@@11111@111+011#$..##X46$$$000000000000000",
"0000000+@1#$$$#.00@111111@11@OO@1#$.$.##=;=.#000000000000000",
"00000000+@@#$#.000@11@1111@@474+@#$#$$.....00000000000000000",
"000000000+++..000;@11@1111@4777+@+$$..###0000000000000000000",
"00000000000>55*0;4111@1111<7776#++#$$$$#.0000000000000000000",
"00000000000>5>*0<41111331147666<$$$.....00000000000000000000",
"00000000000*>>*;,41131331166666<$$$$$$$#00000000000000000000",
"00000000000>**0;4<1133331<666664#$$##..000000000000000000000",
"0000000000>5>*0;4,1133331<6666640...000000000000000000000000",
"0000000000>5>*;44;11333314666666<000000000000000000000000000",
"0000000000*>>;,44;113331<46666664000000000000000000000000000",
"00000000000*;4444,113331446666661000000000000000000000000000",
"0000000000*+44444,@11311446666333100000000000000000000000000",
"0000000000+1444444@111116466633333@0000000000000000000000000",
"000000000+11144444@@1311646663333310000000000000000000000000",
"00000000+211144444;@131164616333631+000000000000000000000000",
"00000000O111144444<+111@44616336661@000000000000000000000000",
"0000000+1111144444<;@1@@446113366661000000000000000000000000",
"0000000;411111444<<<@@@@4,6116366661000000000000000000000000",
"000000;4441111444,<<+@@+<;6116666664000000000000000000000000",
"000000,4444111444<<<;++O;;6116666664000000000000000000000000",
"00000;44444111444<4<=0000:6616666664000000000000000000000000",
"00000;4444444144444=000000<616666666;00000000000000000000000",
"0000;4444444414444=0000000;616666666;00000000000000000000000",
"0000,444444441444=000000000466666666<00000000000000000000000",
"000;444444444444=0000000000:<66633366;0000000000000000000000",
"000,44144444444:000000000000;<6336666;0000000000000000000000",
"00;4444144444<=00000000000000:<166666<;000000000000000000000",
"0;<44441144<;=0000000000000000;1666664;;00000000000000000000",
"0;44444411<=0000000000000000000@46666;,;;0000000000000000000",
";,4444441@=00000000000000000000+466664;4;0000000000000000000",
";444444<@+00000000000000000000004;6664;440000000000000000000",
"=4444<,<+00000000000000000000000;<46444,6<000000000000000000",
"=<<<<<<<=0000000000000000000000004;4444466,;0000000000000000",
"=;<<<<<;=000000000000000000000000<4;<444466<;000000000000000",
"0;<,<<,;;=000000000000000000000000<4;444466;XX00000000000000",
"0=<<<<<;,=0000000000000000000000000<4<4446,X==00000000000000",
"0=;<<<<<<<=000000000000000000000000044444,====X0000000000000",
"00=<,<<<<<;0000000000000000000000000;,44,;;===X0000000000000",
"00=;<<,<<<,0000000000000000000000000XXXX;4,====X000000000000",
"000;<<<,<,;X0000000000000000000000000X===;4;===X000000000000",
"000=<,<<<;XX00000000000000000000000000X===;,;===X00000000000",
"000=<<<<,;XX00000000000000000000000000X===;,;===X00000000000",
"000X;<<,;X=X000000000000000000000000000X===;,====X0000000000",
"000=X,;X===X0000000000000000000000000000X===;;===X0000000000",
"000X=XX=====X0000000000000000000000000000=========X000000000",
"0000==,=====X0000000000000000000000000000X====;====000000000",
"0000==,=====X00000000000000000000000000000X===;====000000000",
"0000X=;;====X000000000000000000000000000000X===;===X00000000",
"00000==;=====X000000000000000000000000000000X===;==X00000000",
"00000==;=====X0000000000000000000000000000000X==;===X0000000",
"00000X=;;====X00000000000000000000000000000000==;===X0000000",
"00000X;=====X000000000000000000000000000000000X;====X0000000",
"000000;====XX000000000000000000000000000000000X=;;;;=X000000",
"000000;===;XX000000000000000000000000000000000X====;=X000000",
"000000=;;;=X;0000000000000000000000000000000000XX=====X00000",
"000000======;;00000000000000000000000000000000000XX===X00000",
"00000X;;-==X;=00000000000000000000000000000000000X===;;o0000",
"00000-;;;=====000000000000000000000000000000000000X=;;;;0000",
"0000=;;;;====X0000000000000000000000000000000000000=;;;;-000",
"0000=;;;;==XXX0000000000000000000000000000000000000=;;;;;=00",
"000=;;;;;=X==00000000000000000000000000000000000000X=;;;;;00",
"00X;;;;;=X 00000000000000000000000000000000000000000X=;;;;00",
"0=;<44;;= 0000000000000000000000000000000000000000000X=;;;=0",
"0;;;;;;X 000000000000000000000000000000000000000000000X=<4=0",
"0XX==X  00000000000000000000000000000000000000000000000X=;;X",
"00000000000000000000000000000000000000000000000000000000XXXX"
};
