/* XPM */
static char *result[] = {
/* columns rows colors chars-per-pixel */
"60 100 31 1 ",
"  c #141214",
". c #540204",
"X c #542204",
"o c #5C2604",
"O c #4C4A04",
"+ c #142244",
"@ c #044244",
"# c #045254",
"$ c #246E6C",
"% c #840204",
"& c #CC0204",
"* c #FC1214",
"= c #AC7A04",
"- c #844224",
"; c #8C4624",
": c #C46244",
"> c #CC6A4C",
", c #D4A634",
"< c #E48E54",
"1 c #E49664",
"2 c #448EA4",
"3 c #4492A4",
"4 c #04CACC",
"5 c #64C6F4",
"6 c #F4B684",
"7 c #FCD684",
"8 c #F4D6A4",
"9 c #F4F6B4",
"0 c #84D6E4",
"q c #FCFEFC",
"w c None",
/* pixels */
"wwwwwwwwwwwwwwwwwwwwwwwwwwwwwwwwwwwwwwwwwwwwwwwwwwwwwwwwwwww",
"wwwwwwwwwwwwwwwwwwwwwwwwwwwwwwwwwwwwwwwwwwwwwwwwwwwwwwwwwwww",
"wwwwwwwwwwwwwwwwwwwwwwwwwwwwwwwwwwwwwwwwwwwwwwwwwwwwwwwwwwww",
"wwwwwwwwwwwwwwwwwwwwwwwwwwwwwwwwwwwwwwwwwwwwwwwwwwwwwwwwwwww",
"wwwwwwwwwwwwwwwwwwwwwwwwwwwwwwwwwwwwwwwwwwwwwwwwwwwwwwwwwwww",
"wwwwwwwwwwwwwwwwwwwwwwwwwwwwwwwwwwwwwwwwwwwwwwwwwwwwwwwwwwww",
"wwwwwwwwwwwwwwwwwwwwwwwwwwwwwwwwwwwwwwwwwwwwwwwwwwwwwwwwwwww",
"wwwwwwwwwwwwwwwwwwww$25552$wwwwwwwwwwwwwwwwwwwwwwwwwwwwwwwww",
"wwwwwwwwwwwwwwwwwww#$$$$552#wwwwwwwwwwwwwwwwwwwwwwwwwwwwwwww",
"wwwwwwwwwwwwwwwwww#35552$2#5$wwwwwwwwwwwwwwwwwwwwwwwwwwwwwww",
"wwwwwwwwwwwwwwwwww#@$$$23#55577,wwwwwwwwwwwwwwwwwwwwwwwwwwww",
"wwwwwwwwwwwwwwwwww,777,,@22,77777wwwwwwwwwwwwwwwwwwwwwwwwwww",
"wwwwwwwwwwwwwwwww,,,,,,,,$===,,,77wwwwwwwwwwwwwwwwwwwwwwwwww",
"wwwwwwwwwwwwwwwww,::,,661:=1,www,7,wwwwwwwwwwwwwwwwwwwwwwwww",
"wwwwwwwwwwwwwwwww:61,8888881,wwww,7wwwwwwwwwwwwwwwwwwwwwwwww",
"wwwwwwwwwwwwwwwww:68,61:8881wwwww,7wwwwwwwwwwwwwwwwwwwwwwwww",
"wwwwwwwwwwwwwwww=-686<4O:881wwwww,7wwwwwwwwwwwwwwwwwwwwwwwww",
"wwwwwwwwwwwwwwww=,:886q081::wwwww,,wwwwwwwwwwwwwwwwwwwwwwwww",
"wwwwwwwwwwwwwww,=,-88818881wwwww,,wwwwwwwwwwwwwwwwwwwwwwwwww",
"wwwwwwwwwwwwww,77==:8888888wwwww,,wwwwwwwwwwwwwwwwwwwwwwwwww",
"wwwwwwwwwwwwww,7,=w-688888:wwww,,wwwwwwwwwwwwwwwwwwwwwwwwwww",
"wwwwwwwwwwwwww===w#2&&:::2ww222$wwwwwwwwwwwwwwwwwwwwwwwwwwww",
"wwwwwwwwwwwww,7,$$#&**&6:$2255552wwwwwwwwwwwwwwwwwwwwwwwwwww",
"wwwwwwwwwwww$$225$#&&**&6-2552$$$wwwwwwwwwwwwwwwwwwwwwwwwwww",
"wwwwwwwwww$2555552&**%**%:-5$52552wwwwwwwwwwwwwwwwwwwwwwwwww",
"wwwwwwwwww#$$$$$$&****%&&%-$55255$wwwwwwwwwwwwwwwwwwwwwwwwww",
"wwwwwwwwww252$2#&&***&&%.%-555$55#wwwwwwwwwwwwwwwwwwwwwwwwww",
"wwwwwwwww$52$2#&**%*&&&..:-555$32#wwwwwwwwwwwwwwwwwwwwwwwwww",
"wwwwwwwww#XXoo&&***%&%.%.;$322$2$wwww11%*wwwwwwwwwwwwwwwwwww",
"wwwwwwwwwoooo&*&%*&&.&%.552#23$2$www:88%**wwwwwwwwwwwwwwwwww",
"wwwwwwww;o;;&*&&*.&%%..5552@22$3$www-11%%*wwwwwwwwwwwwwwwwww",
"wwwwwwww1>;&**&**&.%..$5552@23$2$w18-888&&wwwwwwwwwwwwwwwwww",
"wwwwwwww<&&**&**&%%..5$5522@22$2%%<6X<6:%&*wwwwwwwwwwwwwwwww",
"wwwwwwww&&%&%**&%%..$32$22@$22$%&%---888&&*wwwwwwwwwwwwwwwww",
"wwwwwww#&**%&*&%&.+##$22#$$@$2$%%%.X-:1:%&&wwwwwwwwwwwwwwwww",
"wwwwwww#&***%&%&.@@$###@@@2$@2%&.&.%X688&&&wwwwwwwwwwwwwwwww",
"wwwwwww#2%*&&%&.##$$#$2#222$#$%&.&%.%-::.%%wwwwwwwwwwwwwwwww",
"wwwwwww#$2%&&&%.w$$2222#222@@#%&%%&&.....wwwwwwwwwwwwwwwwwww",
"wwwwwwww#$$%&%.ww$222222$2$###$&&%..%%.wwwwwwwwwwwwwwwwwwwww",
"wwwwwwwww###..=w:$222222$2696@#%&&&&%.wwwwwwwwwwwwwwwwwwwwww",
"wwwwwwwwwww=,,=w6222$222$$9991&&.....wwwwwwwwwwwwwwwwwwwwwww",
"wwwwwwwwwwww==w:6222$222$69986&&&&&&%wwwwwwwwwwwwwwwwwwwwwww",
"wwwwwwwwwww,77=:6222$222$69986%&&%%.wwwwwwwwwwwwwwwwwwwwwwww",
"wwwwwwwwwww,7,=<6222$552298888:...wwwwwwwwwwwwwwwwwwwwwwwwww",
"wwwwwwwwwww=,,:6122225521888881wwwwwwwwwwwwwwwwwwwwwwwwwwwww",
"wwwwwwwwwwww==:6<22525526888886wwwwwwwwwwwwwwwwwwwwwwwwwwwww",
"wwwwwwwwwww=,:<6:225555<6888886wwwwwwwwwwwwwwwwwwwwwwwwwwwww",
"wwwwwwwwwww=:<66:22555266888886:wwwwwwwwwwwwwwwwwwwwwwwwwwww",
"wwwwwwwwwww:66661225552668888882wwwwwwwwwwwwwwwwwwwwwwwwwwww",
"wwwwwwwwww#66666<$225228688885552wwwwwwwwwwwwwwwwwwwwwwwwwww",
"wwwwwwwww#2666666$222228688855555$wwwwwwwwwwwwwwwwwwwwwwwwww",
"wwwwwwww#22266666$$252286888555552wwwwwwwwwwwwwwwwwwwwwwwwww",
"wwwwwwww#22266666:$252286828555855#wwwwwwwwwwwwwwwwwwwwwwwww",
"wwwwwww#222266666<#222$66828558885$wwwwwwwwwwwwwwwwwwwwwwwww",
"wwwwwww@2222666661#222$66828558885$wwwwwwwwwwwwwwwwwwwwwwwww",
"wwwwww:66222266661:$2$$618225588882:wwwwwwwwwwwwwwwwwwwwwwww",
"wwwww:6666222666111#$$#1:8228588888:wwwwwwwwwwwwwwwwwwwwwwww",
"wwwww:6666222666<66:##@::82288888881wwwwwwwwwwwwwwwwwwwwwwww",
"wwww:<6666662666661-wwww:68288888881wwwwwwwwwwwwwwwwwwwwwwww",
"wwww:6666666266666-wwwwww18288888886wwwwwwwwwwwwwwwwwwwwwwww",
"www:<666666626666-wwwwwww:8288888886wwwwwwwwwwwwwwwwwwwwwwww",
"www:666666666666-wwwwwwwww6888888888wwwwwwwwwwwwwwwwwwwwwwww",
"www<66666666661-wwwwwwwwww:688855588:wwwwwwwwwwwwwwwwwwwwwww",
"ww:6662666661:-wwwwwwwwwwww>18558888<wwwwwwwwwwwwwwwwwwwwwww",
"ww<666626666:-wwwwwwwwwwwwww:12888886:wwwwwwwwwwwwwwwwwwwwww",
"ww166662266:-wwwwwwwwwwwwwww>12888886:wwwwwwwwwwwwwwwwwwwwww",
"w:66666622:-wwwwwwwwwwwwwwwww:$8888886:wwwwwwwwwwwwwwwwwwwww",
"w:6666662$-wwwwwwwwwwwwwwwwwww#688888:6:wwwwwwwwwwwwwwwwwwww",
":1666666$#wwwwwwwwwwwwwwwwwwwww6:88886:1:wwwwwwwwwwwwwwwwwww",
":6666661#wwwwwwwwwwwwwwwwwwwwww>6:8866:68<wwwwwwwwwwwwwwwwww",
"-66661<1-wwwwwwwwwwwwwwwwwwwwwww16:1666<881:wwwwwwwwwwwwwwww",
"-1111<1:-wwwwwwwwwwwwwwwwwwwwwwww16:1666688<:wwwwwwwwwwwwwww",
"w:11111::-wwwwwwwwwwwwwwwwwwwwwwww16:666688:XXwwwwwwwwwwwwww",
"w-11<11:11-wwwwwwwwwwwwwwwwwwwwwwww>6<6668<X--wwwwwwwwwwwwww",
"ww:111<1<1:wwwwwwwwwwwwwwwwwwwwwwwww16666<:---Xwwwwwwwwwwwww",
"ww-1<11111:wwwwwwwwwwwwwwwwwwwwwwwww:16<1:6<---Xwwwwwwwwwwww",
"ww-111111<:wwwwwwwwwwwwwwwwwwwwwwwwwXXXX::6<---Xwwwwwwwwwwww",
"ww-111111:-wwwwwwwwwwwwwwwwwwwwwwwwwwX----:<:--Xwwwwwwwwwwww",
"ww-:1<1<:X-XwwwwwwwwwwwwwwwwwwwwwwwwwwX----:<:--Xwwwwwwwwwww",
"www-<1:X.;-XwwwwwwwwwwwwwwwwwwwwwwwwwwwX----:<---Xwwwwwwwwww",
"www--X-----XwwwwwwwwwwwwwwwwwwwwwwwwwwwwX----:---Xwwwwwwwwww",
"wwwX--:----Xwwwwwwwwwwwwwwwwwwwwwwwwwwwww---------Xwwwwwwwww",
"wwwX--<----XwwwwwwwwwwwwwwwwwwwwwwwwwwwwwX----:----wwwwwwwww",
"wwww--:-----XwwwwwwwwwwwwwwwwwwwwwwwwwwwwwX----:---Xwwwwwwww",
"wwwwX-::----XwwwwwwwwwwwwwwwwwwwwwwwwwwwwwwX----:--Xwwwwwwww",
"wwwwX--:----XwwwwwwwwwwwwwwwwwwwwwwwwwwwwwwwX---:---Xwwwwwww",
"wwwww--:-----XwwwwwwwwwwwwwwwwwwwwwwwwwwwwwwwX--:---Xwwwwwww",
"wwwwwX-::----Xwwwwwwwwwwwwwwwwwwwwwwwwwwwwwwww---:---Xwwwwww",
"wwwwwX:------Xwwwwwwwwwwwwwwwwwwwwwwwwwwwwwwww---:::-Xwwwwww",
"wwwwwX:-----XwwwwwwwwwwwwwwwwwwwwwwwwwwwwwwwwwX----:-Xwwwwww",
"wwwwww:---:XXwwwwwwwwwwwwwwwwwwwwwwwwwwwwwwwwwwXX---XXXwwwww",
"wwwwwwX:::-:wwwwwwwwwwwwwwwwwwwwwwwwwwwwwwwwwwwwwXX----Xwwww",
"wwwwww-----::wwwwwwwwwwwwwwwwwwwwwwwwwwwwwwwwwwwwX---::-wwww",
"wwwww-::--X:-wwwwwwwwwwwwwwwwwwwwwwwwwwwwwwwwwwwwwX-::::-www",
"wwww-::::----wwwwwwwwwwwwwwwwwwwwwwwwwwwwwwwwwwwwwX-:::::-ww",
"wwX::::::---Xwwwwwwwwwwwwwwwwwwwwwwwwwwwwwwwwwwwwww--:::::ww",
"w-:166::-XXXXwwwwwwwwwwwwwwwwwwwwwwwwwwwwwwwwwwwwwwXX-::::-w",
"w>:::::-- --wwwwwwwwwwwwwwwwwwwwwwwwwwwwwwwwwwwwwwwwwXX-16-w",
"wXX--XXXXwwwwwwwwwwwwwwwwwwwwwwwwwwwwwwwwwwwwwwwwwwwwwwX-::X",
"wwwwwwwwwwwwwwwwwwwwwwwwwwwwwwwwwwwwwwwwwwwwwwwwwwwwwwwwXXXX"
};
