/* XPM */
static char *_611579279340[] = {
/* columns rows colors chars-per-pixel */
"60 100 30 1 ",
"  c #141214",
". c #540204",
"X c #542204",
"o c #5C2604",
"O c #4C4A04",
"+ c #044244",
"@ c #045254",
"# c #246E6C",
"$ c #840204",
"% c #CC0204",
"& c #FC1214",
"* c #AC7A04",
"= c #844224",
"- c #8C4624",
"; c #C46244",
": c #CC6A4C",
"> c #D4A634",
", c #E48E54",
"< c #E49664",
"1 c #448EA4",
"2 c #4492A4",
"3 c #04CACC",
"4 c #64C6F4",
"5 c #F4B684",
"6 c #FCD684",
"7 c #F4D6A4",
"8 c #F4F6B4",
"9 c #84D6E4",
"0 c #FCFEFC",
"q c None",
/* pixels */
"qqqqqqqqqqqqqqqqqqqqqqqqqqqqqqqqqqqqqqqqqqqqqqqqqqqqqqqqqqqq",
"qqqqqqqqqqqqqqqqqqqqqqqqqqqqqqqqqqqqqqqqqqqqqqqqqqqqqqqqqqqq",
"qqqqqqqqqqqqqqqqqqqqqqqqqqqqqqqqqqqqqqqqqqqqqqqqqqqqqqqqqqqq",
"qqqqqqqqqqqqqqqqqqqqqqqqqqqqqqqqqqqqqqqqqqqqqqqqqqqqqqqqqqqq",
"qqqqqqqqqqqqqqqqqqqqqqqqqqqqqqqqqqqqqqqqqqqqqqqqqqqqqqqqqqqq",
"qqqqqqqqqqqqqqqqqqqqqq#14441#qqqqqqqqqqqqqqqqqqqqqqqqqqqqqqq",
"qqqqqqqqqqqqqqqqqqqqq@####441@qqqqqqqqqqqqqqqqqqqqqqqqqqqqqq",
"qqqqqqqqqqqqqqqqqqqq@14441#1@4#qqqqqqqqqqqqqqqqqqqqqqqqqqqqq",
"qqqqqqqqqqqqqqqqqqqq@@###12@44466>qqqqqqqqqqqqqqqqqqqqqqqqqq",
"qqqqqqqqqqqqqqqqqqqq>666>>+11>66666qqqqqqqqqqqqqqqqqqqqqqqqq",
"qqqqqqqqqqqqqqqqqqq>>>>>>>>#***>>>66qqqqqqqqqqqqqqqqqqqqqqqq",
"qqqqqqqqqqqqqqqqqqq>;;>>55<;*<>qqq>6>qqqqqqqqqqqqqqqqqqqqqqq",
"qqqqqqqqqqqqqqqqqqq;5,>777777<>qqqq>6qqqqqqqqqqqqqqqqqqqqqqq",
"qqqqqqqqqqqqqqqqqqq;57>5<;777<qqqqq>6qqqqqqqqqqqqqqqqqqqqqqq",
"qqqqqqqqqqqqqqqqqq*=575,3O;77<qqqqq>6qqqqqqqqqqqqqqqqqqqqqqq",
"qqqqqqqqqqqqqqqqqq*>;775097<;;qqqqq>>qqqqqqqqqqqqqqqqqqqqqqq",
"qqqqqqqqqqqqqqqqq>*>=777<777<qqqqq>>qqqqqqqqqqqqqqqqqqqqqqqq",
"qqqqqqqqqqqqqqqq>66**;7777777qqqqq>>qqqqqqqqqqqqqqqqqqqqqqqq",
"qqqqqqqqqqqqqqqq>6>*q=577777;qqqq>>qqqqqqqqqqqqqqqqqqqqqqqqq",
"qqqqqqqqqqqqqqq>***q@1;77;;1qq111#qqqqqqqqqqqqqqqqqqqqqqqqqq",
"qqqqqqqqqqqqqqq>6>##@%%;;7-#1144441qqqqqqqqqqqqqqqqqqqqqqqqq",
"qqqqqqqqqqqqqq##114#%&&%5;1#1441###qqqqqqqqqqqqqqqqqqqqqqqqq",
"qqqqqqqqqqqq#1444441%%&&%5=144#41441qqqqqqqqqqqqqqqqqqqqqqqq",
"qqqqqqqqqqqq@######%&&$&&$;=4#44144#qqqqqqqqqqqqqqqqqqqqqqqq",
"qqqqqqqqqqqq141#1@%&&&&$%%$=1444#44@qqqqqqqqqqqqqqqqqqqqqqqq",
"qqqqqqqqqqq#41#1@%%&&&%%$.$=#444#21@qqqqqqqqqqqqqqqqqqqqqqqq",
"qqqqqqqqqq@XoXo#%&&$&%%%..;-#212#11#qqqqqqqqqqqqqqqqqqqqqqqq",
"qqqqqqqqqqooooo%%&&&$%$.$.=41#21#21#qqqqq<<$&qqqqqqqqqqqqqqq",
"qqqqqqqqq-o---%&%$&%%.%$.4441@#1##1#qqqq;77$&&qqqqqqqqqqqqqq",
"qqqqqqqqq<;--%&%%&.%$$..#1411+@12#1#qqqq=<<$$&qqqqqqqqqqqqqq",
"qqqqqqqqq,:-%&&%&&%.$..2#111+#+11#44$q<7=777%%qqqqqqqqqqqqqq",
"qqqqqqqqq<%%&&%&&%$$..#11#11+#+12#44$$,5X<5;$%&qqqqqqqqqqqqq",
"qqqqqqqqq%%$%$&&%$$..@@#11#+#1@#11#$%%$==777%%&qqqqqqqqqqqqq",
"qqqqqqqq@%&&$%&%$%.++#@@@++#11#@12$%%$...;<;$%%qqqqqqqqqqqqq",
"qqqqqqqq@%&&&$%$%.@@##@11+1111#+#1$%.%.$$577%%%qqqqqqqqqqqqq",
"qqqqqqqq@2$&%%$%.q@##1#111#11#@q@#$%.%%.$=;;=.$qqqqqqqqqqqqq",
"qqqqqqqq@#1$%%%$.qq#111111#1##+qq@$%$$%%.....qqqqqqqqqqqqqqq",
"qqqqqqqqq@##$%$.qqq#1#1111##585qq@$%%$..$$.qqqqqqqqqqqqqqqqq",
"qqqqqqqqqq@@@..*qq;#1#1111#5888<q$@$%%%%$.qqqqqqqqqqqqqqqqqq",
"qqqqqqqqqqqq>6>*q;511#1441<8887<$%%%.....qqqqqqqqqqqqqqqqqqq",
"qqqqqqqqqqq*>>*qq<5111144158777<$%%%%%%%$qqqqqqqqqqqqqqqqqqq",
"qqqqqqqqqqq*>>*q;<51114441777775q$%%$$..qqqqqqqqqqqqqqqqqqqq",
"qqqqqqqqqqq>***q;,51114441777775qq...qqqqqqqqqqqqqqqqqqqqqqq",
"qqqqqqqqqq>66*qq;5,1144441777777;qqqqqqqqqqqqqqqqqqqqqqqqqqq",
"qqqqqqqqqq>6>*q;55;1144411777777<qqqqqqqqqqqqqqqqqqqqqqqqqqq",
"qqqqqqqqqq*>>*;,55;114441<7777775;qqqqqqqqqqqqqqqqqqqqqqqqqq",
"qqqqqqqqqq***;5555<11441157777775@qqqqqqqqqqqqqqqqqqqqqqqqqq",
"qqqqqqqqq*6>@55555,#11111777777441@qqqqqqqqqqqqqqqqqqqqqqqqq",
"qqqqqqqqq*>@1555555#14111777774444#qqqqqqqqqqqqqqqqqqqqqqqqq",
"qqqqqqqqq*@11155555##44117777444441@qqqqqqqqqqqqqqqqqqqqqqqq",
"qqqqqqqqq@111155555;@111#7717444744#qqqqqqqqqqqqqqqqqqqqqqqq",
"qqqqqqqq@1111155555,;#1##5717447774#qqqqqqqqqqqqqqqqqqqqqqqq",
"qqqqqqqq;5111155555<<####57114477771qqqqqqqqqqqqqqqqqqqqqqqq",
"qqqqqqq;<551111555<<5@##@;7117477775qqqqqqqqqqqqqqqqqqqqqqqq",
"qqqqqqq;,555111555,<5;@@+;7117477775qqqqqqqqqqqqqqqqqqqqqqqq",
"qqqqqq;,5555111555<5<;qqqq7717777777;qqqqqqqqqqqqqqqqqqqqqqq",
"qqqqqq;5555555155555:qqqqq;717777777;qqqqqqqqqqqqqqqqqqqqqqq",
"qqqqqq<555555515555=qqqqqqq<177777775qqqqqqqqqqqqqqqqqqqqqqq",
"qqqqq;555555551555=qqqqqqqq;777777775;qqqqqqqqqqqqqqqqqqqqqq",
"qqqqq;5555555555<=qqqqqqqqqq:777777775qqqqqqqqqqqqqqqqqqqqqq",
"qqqq;,5515555555=qqqqqqqqqqqq;77744475;qqqqqqqqqqqqqqqqqqqqq",
"qqqq;5555155555=qqqqqqqqqqqqqq<7447777<;qqqqqqqqqqqqqqqqqqqq",
"qqq;<55551155<=qqqqqqqqqqqqqqq;<1777777;qqqqqqqqqqqqqqqqqqqq",
"qqq;55555511;=qqqqqqqqqqqqqqqqq:1777777,;qqqqqqqqqqqqqqqqqqq",
"qq;,5555551#=qqqqqqqqqqqqqqqqqqq#5777775;qqqqqqqqqqqqqqqqqqq",
"qq;555555<#@qqqqqqqqqqqqqqqqqqqq@<77777;5;qqqqqqqqqqqqqqqqqq",
"qq=555<<<<@qqqqqqqqqqqqqqqqqqqqqq<;77775;5qqqqqqqqqqqqqqqqqq",
"qq=<<<<<<<=qqqqqqqqqqqqqqqqqqqqqq:557755;5,qqqqqqqqqqqqqqqqq",
"qq=;<,<<,;=qqqqqqqqqqqqqqqqqqqqqqq<;<555577,;qqqqqqqqqqqqqqq",
"qqq;<<<<<;;qqqqqqqqqqqqqqqqqqqqqqqq<;<,555777;qqqqqqqqqqqqqq",
"qqq=<<<<,;<=qqqqqqqqqqqqqqqqqqqqqqqq5;<555777;Xqqqqqqqqqqqqq",
"qqq=;<<<<<<=qqqqqqqqqqqqqqqqqqqqqqqq<55,55565X=Xqqqqqqqqqqqq",
"qqqq;<,<<,<;qqqqqqqqqqqqqqqqqqqqqqqqq;555555====Xqqqqqqqqqqq",
"qqqq=<<<<<<,=qqqqqqqqqqqqqqqqqqqqqqqqq;<55;;;===Xqqqqqqqqqqq",
"qqqq=<,<,<,;XqqqqqqqqqqqqqqqqqqqqqqqqqXXXX;;5,===Xqqqqqqqqqq",
"qqqq=;<<<<;=XqqqqqqqqqqqqqqqqqqqqqqqqqqX====;,;==Xqqqqqqqqqq",
"qqqq=;<<<,;=XqqqqqqqqqqqqqqqqqqqqqqqqqqX====;,;==Xqqqqqqqqqq",
"qqqqq;<<,;X=XqqqqqqqqqqqqqqqqqqqqqqqqqqqX====;;===Xqqqqqqqqq",
"qqqqqX,;=X==Xqqqqqqqqqqqqqqqqqqqqqqqqqqqq=====,;==Xqqqqqqqqq",
"qqqqq=XX=====XqqqqqqqqqqqqqqqqqqqqqqqqqqqX=====;===qqqqqqqqq",
"qqqqqX=,;====XqqqqqqqqqqqqqqqqqqqqqqqqqqqqX=====;==Xqqqqqqqq",
"qqqqqX=;,====XqqqqqqqqqqqqqqqqqqqqqqqqqqqqqX====;==Xqqqqqqqq",
"qqqqqq==,====XqqqqqqqqqqqqqqqqqqqqqqqqqqqqqqX====;==Xqqqqqqq",
"qqqqqq==;====XqqqqqqqqqqqqqqqqqqqqqqqqqqqqqqqX====;=Xqqqqqqq",
"qqqqqq==;====Xqqqqqqqqqqqqqqqqqqqqqqqqqqqqqqqq====;==Xqqqqqq",
"qqqqqq==;====XqqqqqqqqqqqqqqqqqqqqqqqqqqqqqqqqX===;===Xqqqqq",
"qqqqqq==;;====XqqqqqqqqqqqqqqqqqqqqqqqqqqqqqqqqX=;====Xqqqqq",
"qqqqqq=;======XqqqqqqqqqqqqqqqqqqqqqqqqqqqqqqqqX=;;;;=Xqqqqq",
"qqqqqq=;======XqqqqqqqqqqqqqqqqqqqqqqqqqqqqqqqqX====;=Xqqqqq",
"qqqqqqX;===;XXqqqqqqqqqqqqqqqqqqqqqqqqqqqqqqqqqqXX=====Xqqqq",
"qqqqqqqX;;;==X;qqqqqqqqqqqqqqqqqqqqqqqqqqqqqqqqqqqXX==-Xqqqq",
"qqqqqq=======;;qqqqqqqqqqqqqqqqqqqqqqqqqqqqqqqqqqqq===;;qqqq",
"qqqqqq-;;===X;=qqqqqqqqqqqqqqqqqqqqqqqqqqqqqqqqqqqq==;;;=qqq",
"qqqqq=;;;;=X===qqqqqqqqqqqqqqqqqqqqqqqqqqqqqqqqqqqq==;;;;-qq",
"qqqq=;;;;;====XqqqqqqqqqqqqqqqqqqqqqqqqqqqqqqqqqqqqX=;;;;;qq",
"qqqX;;;;;;XXXXXqqqqqqqqqqqqqqqqqqqqqqqqqqqqqqqqqqqqX=;;;;;qq",
"q=;<55;;;XXX==qqqqqqqqqqqqqqqqqqqqqqqqqqqqqqqqqqqqqqX=;;;;=q",
"q:;;;;;=X qqqqqqqqqqqqqqqqqqqqqqqqqqqqqqqqqqqqqqqqqqqX=;5<=q",
"qXX==XX  qqqqqqqqqqqqqqqqqqqqqqqqqqqqqqqqqqqqqqqqqqqqqXX;;Xq",
"qqqqqqqqqqqqqqqqqqqqqqqqqqqqqqqqqqqqqqqqqqqqqqqqqqqqqqqqXXXq"
};
