/* XPM */
static char *result[] = {
/* columns rows colors chars-per-pixel */
"60 100 31 1 ",
"  c #141214",
". c #540204",
"X c #542204",
"o c #5C2604",
"O c #4C4A04",
"+ c #044244",
"@ c #045254",
"# c #246E6C",
"$ c #840204",
"% c #CC0204",
"& c #FC1214",
"* c #845E04",
"= c #AC7A04",
"- c #844224",
"; c #8C4624",
": c #C46244",
"> c #CC6A4C",
", c #D4A634",
"< c #E48E54",
"1 c #E49664",
"2 c #448EA4",
"3 c #4492A4",
"4 c #04CACC",
"5 c #64C6F4",
"6 c #F4B684",
"7 c #FCD684",
"8 c #F4D6A4",
"9 c #F4F6B4",
"0 c #84D6E4",
"q c #FCFEFC",
"w c None",
/* pixels */
"wwwwwwwwwwwwwwwwwwwwwwwwwwwwwwwwwwwwwwwwwwwwwwwwwwwwwwwwwwww",
"wwwwwwwwwwwwwwwwwwwwwwwwwwwwwwwwwwwwwwwwwwwwwwwwwwwwwwwwwwww",
"wwwwwwwwwwwwwwwwwwwwwwwwwwwwwwwwwwwwwwwwwwwwwwwwwwwwwwwwwwww",
"wwwwwwwwwwwwwwwwwwwwwwwwwwwwwwwwwwwwwwwwwwwwwwwwwwwwwwwwwwww",
"wwwwwwwwwwwwwwwwwwwwwwwwwwwwwwwwwwwwwwwwwwwwwwwwwwwwwwwwwwww",
"wwwwwwwwwwwwwwwwwwww#25552#wwwwwwwwwwwwwwwwwwwwwwwwwwwwwwwww",
"wwwwwwwwwwwwwwwwwww@####552@wwwwwwwwwwwwwwwwwwwwwwwwwwwwwwww",
"wwwwwwwwwwwwwwwwww@25552#2@5#wwwwwwwwwwwwwwwwwwwwwwwwwwwwwww",
"wwwwwwwwwwwwwwwwww@@###22@55577,wwwwwwwwwwwwwwwwwwwwwwwwwwww",
"wwwwwwwwwwwwwwwwww,777,,@22,77777wwwwwwwwwwwwwwwwwwwwwwwwwww",
"wwwwwwwwwwwwwwwww,,,,,,,,#===,,,77wwwwwwwwwwwwwwwwwwwwwwwwww",
"wwwwwwwwwwwwwwwww,::,,661:=1,www,7,wwwwwwwwwwwwwwwwwwwwwwwww",
"wwwwwwwwwwwwwwwww:6<,8888881,wwww,7wwwwwwwwwwwwwwwwwwwwwwwww",
"wwwwwwwwwwwwwwwww:68,6<:8881wwwww,7wwwwwwwwwwwwwwwwwwwwwwwww",
"wwwwwwwwwwwwwwww=;68614O:881wwwww,7wwwwwwwwwwwwwwwwwwwwwwwww",
"wwwwwwwwwwwwwwww=,:886q081:>wwwww,,wwwwwwwwwwwwwwwwwwwwwwwww",
"wwwwwwwwwwwwwww,=,-88818881wwwww,,wwwwwwwwwwwwwwwwwwwwwwwwww",
"wwwwwwwwwwwwww,77==:8888888wwwww,,wwwwwwwwwwwwwwwwwwwwwwwwww",
"wwwwwwwwwwwwww,7,=w;688888:wwww,,wwwwwwwwwwwwwwwwwwwwwwwwwww",
"wwwwwwwwwwwwww===w@2:88::2ww222#wwwwwwwwwwwwwwwwwwwwwwwwwwww",
"wwwwwwwwwwwww,7,##@3#-68-#2255552wwwwwwwwwwwwwwwwwwwwwwwwwww",
"wwwwwwwwwwww##225#@3##--5#2552###wwwwwwwwwwwwwwwwwwwwwwwwwww",
"wwwwwwwwww#2555552#@#22::255#52552wwwwwwwwwwwwwwwwwwwwwwwwww",
"wwwwwwwwww@######3#*,@%%6:5#55255#wwwwwwwwwwwwwwwwwwwwwwwwww",
"wwwwwwwwww252#2@3#2**%&&%6-255#55@wwwwwwwwwwwwwwwwwwwwwwwwww",
"wwwwwwwww#52#2@#2#2%%&$&&$:-55#32@wwwwwwwwwwwwwwwwwwwwwwwwww",
"wwwwwwwww@oXoo#2#%%%&&&$&%$-22#2#wwwwwwwwwwwwwwwwwwwwwwwwwww",
"wwwwwwwwwoooo#2#%&%&&&&%$%%$23#3#wwwww1$&wwwwwwwwwwwwwwwwwww",
"wwwwwwww;o;;;#2%&&&$&&%%$.$.#2#2#www:68$&&wwwwwwwwwwwwwwwwww",
"wwwwwwww<>;;;%%&%&&&$%%$.$.+#2#3#www-:<$$&wwwwwwwwwwwwwwwwww",
"wwwwwwww1>;;%&&%&$&%%.$.$.+#@2#2#w18-888%%wwwwwwwwwwwwwwwwww",
"wwwwwwww<%%%&%%&&%.%$$...2+#@2#2#$<6X:16$%&wwwwwwwwwwwwwwwww",
"wwwwwwww%&$%$%&&%$$.$..2@##2+22#$%$--6888%&wwwwwwwwwwwwwwwww",
"wwwwwww@%&&$%&%%$%$..@@+++22+#2$%$$..-:1:$%wwwwwwwwwwwwwwwww",
"wwwwwww@%&&&$%$$%..#@#2+2222#@2$%.%.$X688%%wwwwwwwwwwwwwwwww",
"wwwwwww@2$&%%$$%..#2222@2222#+#$%.%$.$-::.$wwwwwwwwwwwwwwwww",
"wwwwwww@#2$%%%$.w#222222#222@+@$%$$%.....wwwwwwwwwwwwwwwwwww",
"wwwwwwww@##$%$.ww#222222#2#696@@%%$..$$.wwwwwwwwwwwwwwwwwwww",
"wwwwwwwww@@@..ww:#22#2222#69991.$%%%%$.wwwwwwwwwwwwwwwwwwwww",
"wwwwwwwwwww,77=w6222#2222#99981%%.....wwwwwwwwwwwwwwwwwwwwww",
"wwwwwwwwwww,7,=:6222#2222198886%%%%%%$wwwwwwwwwwwwwwwwwwwwww",
"wwwwwwwwwww=,,=16222#5522688886$%%$$.wwwwwwwwwwwwwwwwwwwwwww",
"wwwwwwwwwww,===<6222#5522688886w...wwwwwwwwwwwwwwwwwwwwwwwww",
"wwwwwwwwww,77=:6<22225521888888wwwwwwwwwwwwwwwwwwwwwwwwwwwww",
"wwwwwwwwww,7,:<6:225255268888881wwwwwwwwwwwwwwwwwwwwwwwwwwww",
"wwwwwwwwww=,:<66:225555<68888886wwwwwwwwwwwwwwwwwwwwwwwwwwww",
"wwwwwwwwww=:66661225552668888882wwwwwwwwwwwwwwwwwwwwwwwwwwww",
"wwwwwwwwww+66666<#255526688888552wwwwwwwwwwwwwwwwwwwwwwwwwww",
"wwwwwwwww@2666666#225228688885555#wwwwwwwwwwwwwwwwwwwwwwwwww",
"wwwwwwww@22266666##222286888555552wwwwwwwwwwwwwwwwwwwwwwwwww",
"wwwwwww@222266666:#252286828555552@wwwwwwwwwwwwwwwwwwwwwwwww",
"wwwwwww@2222666661#252266828555855#wwwwwwwwwwwwwwwwwwwwwwwww",
"wwwwww:62222666661@222#66828558885#wwwwwwwwwwwwwwwwwwwwwwwww",
"wwwwww<66222266661:#2##618225588882wwwwwwwwwwwwwwwwwwwwwwwww",
"wwwwww16622226666<:#2##618225588882wwwwwwwwwwwwwwwwwwwwwwwww",
"wwwww:6666222666111@##@1:8228588888:wwwwwwwwwwwwwwwwwwwwwwww",
"wwww:<6666222666166:@@+::8228888888:wwwwwwwwwwwwwwwwwwwwwwww",
"wwww:66666662666661-wwww:68288888881wwwwwwwwwwwwwwwwwwwwwwww",
"www:16666666266666-wwwwww18288888881wwwwwwwwwwwwwwwwwwwwwwww",
"www:6666666626666-wwwwwww:8288888886wwwwwwwwwwwwwwwwwwwwwwww",
"ww:<666666666666-wwwwwwwww6888888888wwwwwwwwwwwwwwwwwwwwwwww",
"ww:666266666661-wwwwwwwwww:688855588:wwwwwwwwwwwwwwwwwwwwwww",
"ww16666266661:-wwwwwwwwwwww>18558888<wwwwwwwwwwwwwwwwwwwwwww",
"w:666662266:-wwwwwwwwwwwwwww:12888886:wwwwwwwwwwwwwwwwwwwwww",
"w:66666622:-wwwwwwwwwwwwwwwww:28888886:wwwwwwwwwwwwwwwwwwwww",
":<6666662#-wwwwwwwwwwwwwwwwww:#8888886:wwwwwwwwwwwwwwwwwwwww",
":6666661#@wwwwwwwwwwwwwwwwwwww@688888:6:wwwwwwwwwwwwwwwwwwww",
"-66661<1@wwwwwwwwwwwwwwwwwwwwww6:88886:1:wwwwwwwwwwwwwwwwwww",
"-1111111-wwwwwwwwwwwwwwwwwwwwww>6:8866:68<wwwwwwwwwwwwwwwwww",
"-:1111<:-wwwwwwwwwwwwwwwwwwwwwww16:1666<881:wwwwwwwwwwwwwwww",
"w:1<111::-wwwwwwwwwwwwwwwwwwwwwww16:1666688<:wwwwwwwwwwwwwww",
"w-11111:<-wwwwwwwwwwwwwwwwwwwwwwww16:666688:XXwwwwwwwwwwwwww",
"w-:111<111:wwwwwwwwwwwwwwwwwwwwwwww>6<6668<X--wwwwwwwwwwwwww",
"ww-1<11111:wwwwwwwwwwwwwwwwwwwwwwwww16666<----Xwwwwwwwwwwwww",
"ww-111<111:wwwwwwwwwwwwwwwwwwwwwwwww:16<1::----Xwwwwwwwwwwww",
"ww-:<111<:XwwwwwwwwwwwwwwwwwwwwwwwwwXXXX::6<---Xwwwwwwwwwwww",
"ww-:11111:owwwwwwwwwwwwwwwwwwwwwwwwwwX---:6<---Xwwwwwwwwwwww",
"ww-:1<1<:.-XwwwwwwwwwwwwwwwwwwwwwwwwwwX---:<:---owwwwwwwwwww",
"wwXX<1:XX--XwwwwwwwwwwwwwwwwwwwwwwwwwwwX---:<---.wwwwwwwwwww",
"wwX-XX-----XwwwwwwwwwwwwwwwwwwwwwwwwwwwwX---::---Xwwwwwwwwww",
"wwwX--:----Xwwwwwwwwwwwwwwwwwwwwwwwwwwwww----:----Xwwwwwwwww",
"wwwX--<----XwwwwwwwwwwwwwwwwwwwwwwwwwwwwwX----:---Xwwwwwwwww",
"wwwwX-<-----XwwwwwwwwwwwwwwwwwwwwwwwwwwwwwX---:----wwwwwwwww",
"wwwwX-::----XwwwwwwwwwwwwwwwwwwwwwwwwwwwwwwX---:---Xwwwwwwww",
"wwwwX--:----XwwwwwwwwwwwwwwwwwwwwwwwwwwwwwwwX--:---Xwwwwwwww",
"wwwwwX-:-----XwwwwwwwwwwwwwwwwwwwwwwwwwwwwwwwX-:---Xwwwwwwww",
"wwwwwX-::----Xwwwwwwwwwwwwwwwwwwwwwwwwwwwwwwww-:----Xwwwwwww",
"wwwwwX:-----XwwwwwwwwwwwwwwwwwwwwwwwwwwwwwwwwwX::::XXwwwwwww",
"wwwwwX:-----XwwwwwwwwwwwwwwwwwwwwwwwwwwwwwwwwwX---:XXwwwwwww",
"wwwwww:---:XXwwwwwwwwwwwwwwwwwwwwwwwwwwwwwwwwwX-----XXwwwwww",
"wwwwww-:::-:wwwwwwwwwwwwwwwwwwwwwwwwwwwwwwwwwwwXX-----Xwwwww",
"wwwwww-----::wwwwwwwwwwwwwwwwwwwwwwwwwwwwwwwwwwwwXX----Xwwww",
"wwwwwX::---:-wwwwwwwwwwwwwwwwwwwwwwwwwwwwwwwwwwwwX---::;wwww",
"wwwww-:::-X--wwwwwwwwwwwwwwwwwwwwwwwwwwwwwwwwwwwwwX-::::-www",
"wwww-::::---XwwwwwwwwwwwwwwwwwwwwwwwwwwwwwwwwwwwwwX-:::::-ww",
"wwX::::::-XXXwwwwwwwwwwwwwwwwwwwwwwwwwwwwwwwwwwwwww--:::::ww",
"w-:166::-XX-wwwwwwwwwwwwwwwwwwwwwwwwwwwwwwwwwwwwwwwXX-::::-w",
"w::::::-- wwwwwwwwwwwwwwwwwwwwwwwwwwwwwwwwwwwwwwwwwwwXX-16-w",
"wXX--XXXXwwwwwwwwwwwwwwwwwwwwwwwwwwwwwwwwwwwwwwwwwwwwwwX-::X",
"wwwwwwwwwwwwwwwwwwwwwwwwwwwwwwwwwwwwwwwwwwwwwwwwwwwwwwwwXXXX"
};
