/* XPM */
static char *result[] = {
/* columns rows colors chars-per-pixel */
"60 100 31 1 ",
"  c #141214",
". c #540204",
"X c #542204",
"o c #5C2604",
"O c #4C4A04",
"+ c #044244",
"@ c #045254",
"# c #246E6C",
"$ c #840204",
"% c #CC0204",
"& c #FC1214",
"* c #845E04",
"= c #AC7A04",
"- c #844224",
"; c #8C4624",
": c #C46244",
"> c #CC6A4C",
", c #D4A634",
"< c #E48E54",
"1 c #E49664",
"2 c #448EA4",
"3 c #4492A4",
"4 c #04CACC",
"5 c #64C6F4",
"6 c #F4B684",
"7 c #FCD684",
"8 c #F4D6A4",
"9 c #F4F6B4",
"0 c #84D6E4",
"q c #FCFEFC",
"w c None",
/* pixels */
"wwwwwwwwwwwwwwwwwwwwwwwwwwwwwwwwwwwwwwwwwwwwwwwwwwwwwwwwwwww",
"wwwwwwwwwwwwwwwwwwwwwwwwwwwwwwwwwwwwwwwwwwwwwwwwwwwwwwwwwwww",
"wwwwwwwwwwwwwwwwwwwwwwwwwwwwwwwwwwwwwwwwwwwwwwwwwwwwwwwwwwww",
"wwwwwwwwwwwwwwwwwwwwwwwwwwwwwwwwwwwwwwwwwwwwwwwwwwwwwwwwwwww",
"wwwwwwwwwwwwwwwwwwwwwwwwwwwwwwwwwwwwwwwwwwwwwwwwwwwwwwwwwwww",
"wwwwwwwwwwwwwwwwwwwwww#25552#wwwwwwwwwwwwwwwwwwwwwwwwwwwwwww",
"wwwwwwwwwwwwwwwwwwwww@####552@wwwwwwwwwwwwwwwwwwwwwwwwwwwwww",
"wwwwwwwwwwwwwwwwwwww@25552#2@5#wwwwwwwwwwwwwwwwwwwwwwwwwwwww",
"wwwwwwwwwwwwwwwwwwww@@###22@55577,wwwwwwwwwwwwwwwwwwwwwwwwww",
"wwwwwwwwwwwwwwwwwwww,777,,@22,77777wwwwwwwwwwwwwwwwwwwwwwwww",
"wwwwwwwwwwwwwwwwwww,,,,,,,,#===,,,77wwwwwwwwwwwwwwwwwwwwwwww",
"wwwwwwwwwwwwwwwwwww,::,,661:=1,www,7,wwwwwwwwwwwwwwwwwwwwwww",
"wwwwwwwwwwwwwwwwwww:6<,8888881,wwww,7wwwwwwwwwwwwwwwwwwwwwww",
"wwwwwwwwwwwwwwwwwww:68,6<:8881wwwww,7wwwwwwwwwwwwwwwwwwwwwww",
"wwwwwwwwwwwwwwwwww=;68614O:881wwwww,7wwwwwwwwwwwwwwwwwwwwwww",
"wwwwwwwwwwwwwwwwww=,:886q081:>wwwww,,wwwwwwwwwwwwwwwwwwwwwww",
"wwwwwwwwwwwwwwwww,=,-88818881wwwww,,wwwwwwwwwwwwwwwwwwwwwwww",
"wwwwwwwwwwwwwwwww,7==:8888888wwwww,,wwwwwwwwwwwwwwwwwwwwwwww",
"wwwwwwwwwwwwwwwww,77=-688888:wwww,,wwwwwwwwwwwwwwwwwwwwwwwww",
"wwwwwwwwwwwwwwwww===@2:88::2w222#wwwwwwwwwwwwwwwwwwwwwwwwwww",
"wwwwwwwwwwwwwwww,7##@3#-68-#2555522wwwwwwwwwwwwwwwwwwwwwwwww",
"wwwwwwwwwwwwww##225#@3##-;2#2552###wwwwwwwwwwwwwwwwwwwwwwwww",
"wwwwwwwwwwww#2555552#@#2::#255#52552wwwwwwwwwwwwwwwwwwwwwwww",
"wwwwwwwwwwww@######3#*,%%6:25#55255#wwwwwwwwwwwwwwwwwwwwwwww",
"wwwwwwwwwwww252#2@2#2*%&&%6-#255#55@wwwwwwwwwwwwwwwwwwwwwwww",
"wwwwwwwwwww#52#2@#2#%%&$&&$:;#55#22@wwwwwwwwwwwwwwwwwwwwwwww",
"wwwwwwwwww@oXooo#2%%%&&&$&%$-2#2#23#wwwwwwwwwwwwwwwwwwwwwwww",
"wwwwwwwwwwXoooo#2%&%&&&&%$%%$2@23#2#wwwwww11$&wwwwwwwwwwwwww",
"wwwwwwwww;o;;;;#%&&&$&&%%$.$.2+22#32wwwww:88$&&wwwwwwwwwwwww",
"wwwwwwwww<>;;;%%&%&&&$%%$.$.2+#+22#5#wwww-11$$&wwwwwwwwwwwww",
"wwwwwwwww1>;;%&&%&$&%%.$.$.2+##+#2#35ww18-888%%wwwwwwwwwwwww",
"wwwwwwwww<%%%&%%&&%.%$$...22+##+#3#25$$<6o<6:$%&wwwwwwwwwwww",
"wwwwwwwww%&$%$%&&%$$.$..22#+#2#w+22#$%%---888%%&wwwwwwwwwwww",
"wwwwwwww@%&&$%&%%$%$..@@@++#22#w+#2$%$$..-:1:$%%wwwwwwwwwwww",
"wwwwwwww@%&&&$%$$%..##@22+2222@ww@2$%.%.$.688%%%wwwwwwwwwwww",
"wwwwwwww@2$&%%$$%..@#2#222#22#@ww@#$%.%%.$-::$$$wwwwwwwwwwww",
"wwwwwwww@#2$%%%$.ww#22#222#2#++www@$%$$%%.....wwwwwwwwwwwwww",
"wwwwwwwww@##$%$.=ww#222222##696www@$%%$..$$.wwwwwwwwwwwwwwww",
"wwwwwwwwww@@@..,=w:22#2222#6999www$@$%%%%$.wwwwwwwwwwwwwwwww",
"wwwwwwwwwwwww=,,=:622#2222699981w$%%$.....wwwwwwwwwwwwwwwwww",
"wwwwwwwwwwwwww==w1622#2222898881w$%%%%%%%$wwwwwwwwwwwwwwwwww",
"wwwwwwwwwwwww,77=162225522888886ww$%%%$$.wwwwwwwwwwwwwwwwwww",
"wwwwwwwwwwwww,7,:<62225522888886www...wwwwwwwwwwwwwwwwwwwwww",
"wwwwwwwwwwwww=,,:6<25255228888861wwwwwwwwwwwwwwwwwwwwwwwwwww",
"wwwwwwwwwwwwww=:66:25255228888881wwwwwwwwwwwwwwwwwwwwwwwwwww",
"wwwwwwwwwwwww::<66:25555228888886:wwwwwwwwwwwwwwwwwwwwwwwwww",
"wwwwwwwwwwww@<6666125555218888886#wwwwwwwwwwwwwwwwwwwwwwwwww",
"wwwwwwwwwww@266666<#25552688888555@wwwwwwwwwwwwwwwwwwwwwwwww",
"wwwwwwwwww@22266666#255228888855552wwwwwwwwwwwwwwwwwwwwwwwww",
"wwwwwwwww@222266666##22228888855552@wwwwwwwwwwwwwwwwwwwwwwww",
"wwwwwwww@2222266666:#52228828555855@wwwwwwwwwwwwwwwwwwwwwwww",
"wwwwwwww:22222666661@55226828558885#wwwwwwwwwwwwwwwwwwwwwwww",
"wwwwwww:662222266661:#22#68225588882wwwwwwwwwwwwwwwwwwwwwwww",
"wwwwww:<6662222666<11#2##1822858888:wwwwwwwwwwwwwwwwwwwwwwww",
"wwwwww:16666222666111@##@1822858888:wwwwwwwwwwwwwwwwwwwwwwww",
"wwwwww<66666222666161-@@+:8228888886wwwwwwwwwwwwwwwwwwwwwwww",
"wwwwww66666666266661:wwwww6828888888:wwwwwwwwwwwwwwwwwwwwwww",
"wwwww:6666666626666-wwwwww:828888888:wwwwwwwwwwwwwwwwwwwwwww",
"wwww:1666666662666-wwwwwwww1288888886wwwwwwwwwwwwwwwwwwwwwww",
"wwww:666666666666-wwwwwwwww:888888886:wwwwwwwwwwwwwwwwwwwwww",
"www:<66266666666-wwwwwwwwwww188855588:wwwwwwwwwwwwwwwwwwwwww",
"www:66662666661-wwwwwwwwwwwww185588881:wwwwwwwwwwwwwwwwwwwww",
"ww:1666622661:-wwwwwwwwwwwwww>12888888:wwwwwwwwwwwwwwwwwwwww",
"ww:66666622:-wwwwwwwwwwwwwwwww:2888888<:wwwwwwwwwwwwwwwwwwww",
"w:16666662#-wwwwwwwwwwwwwwwwwww@688888:6:wwwwwwwwwwwwwwwwwww",
"w:6666661#@wwwwwwwwwwwwwwwwwwwww118888:66wwwwwwwwwwwwwwwwwww",
"w-1666111@wwwwwwwwwwwwwwwwwwwwww1:18866:61wwwwwwwwwwwwwwwwww",
"w-1<111<1-wwwwwwwwwwwwwwwwwwwwww:6:6666666<wwwwwwwwwwwwwwwww",
"w-111111:-wwwwwwwwwwwwwwwwwwwwwww16:6666<86:wwwwwwwwwwwwwwww",
"w-:1111<::-wwwwwwwwwwwwwwwwwwwwwww16:6666888:wwwwwwwwwwwwwww",
"ww-1<111:1-wwwwwwwwwwwwwwwwwwwwwwww161666888:-wwwwwwwwwwwwww",
"ww-:1111111-wwwwwwwwwwwwwwwwwwwwwwww16666676X-Xwwwwwwwwwwwww",
"www-1<1<11<:wwwwwwwwwwwwwwwwwwwwwwww>666666----Xwwwwwwwwwwww",
"www-1111<11-wwwwwwwwwwwwwwwwwwwwwwwww:<66::::---Xwwwwwwwwwww",
"www-1<111<:XwwwwwwwwwwwwwwwwwwwwwwwwwwXXX-:6<:--Xwwwwwwwwwww",
"www-:111<:XXwwwwwwwwwwwwwwwwwwwwwwwwwwX----:<:---Xwwwwwwwwww",
"www-:1111:XXwwwwwwwwwwwwwwwwwwwwwwwwwwX----:<:---Xwwwwwwwwww",
"wwwX:1<<:X-XwwwwwwwwwwwwwwwwwwwwwwwwwwwX----:<---Xwwwwwwwwww",
"wwwXX1:-X---XwwwwwwwwwwwwwwwwwwwwwwwwwwwX----::----wwwwwwwww",
"wwww-XX-----XwwwwwwwwwwwwwwwwwwwwwwwwwwwwX----:----wwwwwwwww",
"wwwwX-<:----XwwwwwwwwwwwwwwwwwwwwwwwwwwwwwX----:---Xwwwwwwww",
"wwwww-:<----owwwwwwwwwwwwwwwwwwwwwwwwwwwwwwX----:--Xwwwwwwww",
"wwwwwX-<----.wwwwwwwwwwwwwwwwwwwwwwwwwwwwwwwX----:--Xwwwwwww",
"wwwwwX-::----XwwwwwwwwwwwwwwwwwwwwwwwwwwwwwwwX---:--Xwwwwwww",
"wwwwww--:----XwwwwwwwwwwwwwwwwwwwwwwwwwwwwwwwwX---:--Xwwwwww",
"wwwwww--:-----XwwwwwwwwwwwwwwwwwwwwwwwwwwwwwwwX---:---Xwwwww",
"wwwwww--::----XwwwwwwwwwwwwwwwwwwwwwwwwwwwwwwwwX-:----Xwwwww",
"wwwwww-:-----XwwwwwwwwwwwwwwwwwwwwwwwwwwwwwwwwwX-::::-Xwwwww",
"wwwwww-:-----XwwwwwwwwwwwwwwwwwwwwwwwwwwwwwwwwwX----:-Xwwwww",
"wwwwww-:--:XXXwwwwwwwwwwwwwwwwwwwwwwwwwwwwwwwwwwXX---X-Xwwww",
"wwwwwwX-:::--X:wwwwwwwwwwwwwwwwwwwwwwwwwwwwwwwwwwwX----Xwwww",
"wwwwwww-------::wwwwwwwwwwwwwwwwwwwwwwwwwwwwwwwwwww--;::wwww",
"wwwwwwX;-----X:-wwwwwwwwwwwwwwwwwwwwwwwwwwwwwwwwwww--:::;www",
"wwwwww:::---X---wwwwwwwwwwwwwwwwwwwwwwwwwwwwwwwwwww--::::-ww",
"wwwww-::::-----XwwwwwwwwwwwwwwwwwwwwwwwwwwwwwwwwwwwX-:::::ww",
"wwwX::::::-XXXXXwwwwwwwwwwwwwwwwwwwwwwwwwwwwwwwwwwwX-:::::ww",
"w-:161:::-X X--wwwwwwwwwwwwwwwwwwwwwwwwwwwwwwwwwwwwwX-::::-w",
"w::::::-- wwwwwwwwwwwwwwwwwwwwwwwwwwwwwwwwwwwwwwwwwwwX-:61-w",
"wXX--XX  wwwwwwwwwwwwwwwwwwwwwwwwwwwwwwwwwwwwwwwwwwwwwXX::Xw",
"wwwwwwwwwwwwwwwwwwwwwwwwwwwwwwwwwwwwwwwwwwwwwwwwwwwwwwwwXXXw"
};
